<svg xmlns="http://www.w3.org/2000/svg" xmlns:xlink="http://www.w3.org/1999/xlink" width="500" zoomAndPan="magnify" viewBox="0 0 375 374.999991" height="500" preserveAspectRatio="xMidYMid meet" version="1.2"><defs><clipPath id="181a72f271"><path d="M 132.511719 56.128906 L 256.46875 56.128906 L 256.46875 319 L 132.511719 319 Z M 132.511719 56.128906 "/></clipPath><clipPath id="49c146dd62"><path d="M 194.488281 56.128906 L 256.46875 187.5 L 194.488281 318.871094 L 132.511719 187.5 Z M 194.488281 56.128906 "/></clipPath><clipPath id="d5126697d7"><path d="M 132.511719 56.128906 L 256.859375 56.128906 L 256.859375 318.738281 L 132.511719 318.738281 Z M 132.511719 56.128906 "/></clipPath><clipPath id="5f2b8cd32d"><path d="M 194.460938 56.128906 L 256.40625 187.433594 L 194.460938 318.738281 L 132.511719 187.433594 Z M 194.460938 56.128906 "/></clipPath><clipPath id="b29b87f1b0"><path d="M 167.125 117.785156 L 221.910156 117.785156 L 221.910156 256.917969 L 167.125 256.917969 Z M 167.125 117.785156 "/></clipPath></defs><g id="58ff5f80eb"><g style="fill:#000000;fill-opacity:1;"><g transform="translate(34.937512, 225.761079)"><path style="stroke:none" d="M 2.890625 -83.015625 L 2.890625 -84.515625 L 24.234375 -84.515625 L 50.203125 -18.09375 L 75.015625 -84.515625 L 96 -84.515625 L 96 -83.015625 C 93.289062 -83.015625 91.257812 -82.742188 89.90625 -82.203125 C 88.550781 -81.660156 87.835938 -79.957031 87.765625 -77.09375 L 87.765625 -7.890625 C 87.765625 -4.796875 88.441406 -2.957031 89.796875 -2.375 C 91.148438 -1.789062 93.21875 -1.5 96 -1.5 L 96 0 L 66.78125 0 L 66.78125 -1.5 C 69.5625 -1.5 71.628906 -1.789062 72.984375 -2.375 C 74.335938 -2.957031 75.015625 -4.796875 75.015625 -7.890625 L 75.015625 -80 L 45.09375 0 L 43.46875 0 L 14.375 -75.59375 C 14.300781 -75.75 14.242188 -75.898438 14.203125 -76.046875 C 14.160156 -76.203125 14.101562 -76.320312 14.03125 -76.40625 L 14.03125 -7.53125 C 14.101562 -4.675781 14.816406 -2.957031 16.171875 -2.375 C 17.523438 -1.789062 19.554688 -1.5 22.265625 -1.5 L 22.265625 0 L 4.296875 0 L 4.296875 -1.5 C 7.078125 -1.5 9.140625 -1.789062 10.484375 -2.375 C 11.835938 -2.957031 12.515625 -4.796875 12.515625 -7.890625 L 12.515625 -79.421875 C 11.515625 -80.960938 10.296875 -81.945312 8.859375 -82.375 C 7.429688 -82.800781 5.441406 -83.015625 2.890625 -83.015625 Z M 2.890625 -83.015625 "/></g></g><g clip-rule="nonzero" clip-path="url(#181a72f271)"><g clip-rule="nonzero" clip-path="url(#49c146dd62)"><path style=" stroke:none;fill-rule:nonzero;fill:#004b96;fill-opacity:1;" d="M 132.511719 56.128906 L 256.46875 56.128906 L 256.46875 319.050781 L 132.511719 319.050781 Z M 132.511719 56.128906 "/></g></g><g clip-rule="nonzero" clip-path="url(#d5126697d7)"><g clip-rule="nonzero" clip-path="url(#5f2b8cd32d)"><path style="fill:none;stroke-width:10.349936;stroke-linecap:butt;stroke-linejoin:miter;stroke:#004b96;stroke-opacity:1;stroke-miterlimit:4;" d="M 71.273842 0.000764337 L 142.543684 151.070538 L 71.273842 302.140311 L -0.000494553 151.070538 Z M 71.273842 0.000764337 " transform="matrix(0.869166,0,0,0.869166,132.512149,56.128242)"/></g></g><g clip-rule="nonzero" clip-path="url(#b29b87f1b0)"><path style=" stroke:none;fill-rule:nonzero;fill:#ffffff;fill-opacity:1;" d="M 195.871094 206.855469 C 188.578125 200.625 180.339844 193.769531 177.242188 187.707031 C 170.898438 175.292969 177.574219 167.46875 186.1875 162.011719 C 188.414062 164.007812 190.734375 165.9375 192.980469 167.851562 C 200.273438 174.082031 208.507812 180.933594 211.605469 187 C 217.949219 199.414062 211.277344 207.234375 202.660156 212.695312 C 200.433594 210.699219 198.113281 208.769531 195.871094 206.855469 Z M 204.925781 214.800781 C 213.546875 209.304688 221.722656 200.546875 221.722656 188.867188 C 221.722656 172.5625 210.527344 165.496094 201.488281 159.039062 C 199.984375 157.964844 181.886719 145.726562 181.886719 134.273438 C 181.886719 124.914062 188.421875 120.902344 196.320312 120.902344 C 207.921875 120.902344 203.789062 130.96875 203.789062 135.53125 C 203.789062 137.476562 204.179688 139.425781 205.617188 140.734375 C 206.667969 141.691406 208.066406 142.273438 209.601562 142.273438 C 209.691406 142.273438 209.78125 142.269531 209.867188 142.265625 C 212.507812 142.148438 214.660156 140.09375 215.039062 137.484375 C 216.863281 125 206.90625 117.863281 195.5625 117.863281 C 183.644531 117.863281 173.550781 128.320312 173.550781 140.238281 C 173.550781 148.183594 178.160156 154.371094 183.921875 159.90625 C 175.300781 165.402344 167.125 174.160156 167.125 185.839844 C 167.125 202.140625 178.320312 209.207031 187.359375 215.667969 C 188.863281 216.738281 206.960938 228.980469 206.960938 240.433594 C 206.960938 249.792969 200.429688 253.804688 192.527344 253.804688 C 180.925781 253.804688 185.058594 243.738281 185.058594 239.175781 C 185.058594 237.230469 184.667969 235.28125 183.234375 233.972656 C 182.179688 233.015625 180.78125 232.433594 179.246094 232.433594 C 179.15625 232.433594 179.070312 232.4375 178.980469 232.4375 C 176.339844 232.554688 174.191406 234.609375 173.808594 237.222656 C 171.988281 249.707031 181.941406 256.84375 193.285156 256.84375 C 205.203125 256.84375 215.300781 246.382812 215.300781 234.46875 C 215.300781 226.523438 210.6875 220.335938 204.925781 214.800781 "/></g><g style="fill:#000000;fill-opacity:1;"><g transform="translate(259.415965, 225.761079)"><path style="stroke:none" d="M 46.375 1.390625 C 38.414062 1.390625 31.378906 -0.40625 25.265625 -4 C 19.160156 -7.59375 14.390625 -12.535156 10.953125 -18.828125 C 7.515625 -25.128906 5.796875 -32.34375 5.796875 -40.46875 C 5.796875 -46.726562 6.722656 -52.597656 8.578125 -58.078125 C 10.429688 -63.566406 13.132812 -68.398438 16.6875 -72.578125 C 20.25 -76.753906 24.5625 -80 29.625 -82.3125 C 34.6875 -84.632812 40.425781 -85.796875 46.84375 -85.796875 C 50.550781 -85.796875 53.640625 -85.367188 56.109375 -84.515625 C 58.585938 -83.671875 60.675781 -82.820312 62.375 -81.96875 C 64.070312 -81.113281 65.539062 -80.6875 66.78125 -80.6875 C 67.476562 -80.6875 68.171875 -80.9375 68.859375 -81.4375 C 69.554688 -81.945312 69.90625 -82.972656 69.90625 -84.515625 L 71.421875 -84.515625 L 71.421875 -55.421875 L 70.03125 -55.421875 C 70.03125 -65.160156 68.054688 -72.191406 64.109375 -76.515625 C 60.171875 -80.847656 54.757812 -83.015625 47.875 -83.015625 C 42.695312 -83.015625 37.984375 -81.617188 33.734375 -78.828125 C 29.484375 -76.046875 26.082031 -71.910156 23.53125 -66.421875 C 20.976562 -60.941406 19.703125 -54.144531 19.703125 -46.03125 C 19.703125 -37.988281 20.976562 -30.851562 23.53125 -24.625 C 26.082031 -18.40625 29.773438 -13.554688 34.609375 -10.078125 C 39.441406 -6.609375 45.179688 -4.875 51.828125 -4.875 C 57.390625 -4.875 61.96875 -6.109375 65.5625 -8.578125 C 69.15625 -11.054688 71.800781 -14.285156 73.5 -18.265625 C 75.207031 -22.242188 76.0625 -26.515625 76.0625 -31.078125 L 77.5625 -31.078125 C 77.5625 -27.054688 76.960938 -23.113281 75.765625 -19.25 C 74.566406 -15.382812 72.691406 -11.882812 70.140625 -8.75 C 67.585938 -5.625 64.359375 -3.148438 60.453125 -1.328125 C 56.554688 0.484375 51.863281 1.390625 46.375 1.390625 Z M 46.375 1.390625 "/></g></g></g></svg>