<svg xmlns="http://www.w3.org/2000/svg" xmlns:xlink="http://www.w3.org/1999/xlink" width="500" zoomAndPan="magnify" viewBox="0 0 375 374.999991" height="500" preserveAspectRatio="xMidYMid meet" version="1.2"><g id="7d64e84438"><path style=" stroke:none;fill-rule:nonzero;fill:#ffffff;fill-opacity:1;" d="M 9.332031 183.683594 C 10.898438 183.683594 12.351562 183.277344 13.695312 182.46875 L 137.128906 108.402344 L 226.410156 148.980469 C 227.074219 149.285156 227.769531 149.5 228.488281 149.621094 C 229.210938 149.746094 229.9375 149.777344 230.664062 149.710938 C 231.394531 149.648438 232.105469 149.492188 232.792969 149.246094 C 233.480469 148.996094 234.128906 148.667969 234.730469 148.253906 L 353.246094 66.601562 L 349.003906 87.675781 C 348.894531 88.222656 348.839844 88.773438 348.839844 89.332031 C 348.839844 89.886719 348.890625 90.4375 349 90.984375 C 349.109375 91.53125 349.269531 92.0625 349.480469 92.578125 C 349.691406 93.09375 349.953125 93.582031 350.261719 94.046875 C 350.570312 94.507812 350.921875 94.9375 351.316406 95.332031 C 351.707031 95.726562 352.136719 96.078125 352.597656 96.390625 C 353.0625 96.699219 353.550781 96.960938 354.066406 97.175781 C 354.578125 97.390625 355.109375 97.550781 355.65625 97.660156 C 356.214844 97.769531 356.78125 97.824219 357.351562 97.824219 C 357.839844 97.820312 358.320312 97.78125 358.796875 97.699219 C 359.273438 97.613281 359.742188 97.492188 360.199219 97.328125 C 360.65625 97.164062 361.09375 96.964844 361.519531 96.726562 C 361.941406 96.488281 362.339844 96.214844 362.714844 95.90625 C 363.089844 95.601562 363.4375 95.265625 363.753906 94.898438 C 364.074219 94.53125 364.355469 94.140625 364.609375 93.726562 C 364.859375 93.3125 365.070312 92.878906 365.25 92.425781 C 365.425781 91.972656 365.5625 91.511719 365.660156 91.035156 L 373.972656 49.460938 C 374.085938 48.917969 374.140625 48.367188 374.144531 47.808594 C 374.148438 47.25 374.097656 46.699219 373.992188 46.152344 C 373.886719 45.605469 373.726562 45.074219 373.515625 44.558594 C 373.308594 44.042969 373.046875 43.554688 372.742188 43.089844 C 372.433594 42.625 372.085938 42.195312 371.695312 41.796875 C 371.300781 41.402344 370.875 41.046875 370.414062 40.734375 C 369.953125 40.421875 369.464844 40.160156 368.953125 39.941406 C 368.4375 39.726562 367.910156 39.5625 367.363281 39.453125 L 325.792969 31.136719 C 325.246094 31.027344 324.695312 30.96875 324.136719 30.964844 C 323.582031 30.964844 323.027344 31.015625 322.480469 31.121094 C 321.933594 31.226562 321.402344 31.386719 320.886719 31.597656 C 320.371094 31.808594 319.882812 32.066406 319.417969 32.375 C 318.953125 32.679688 318.523438 33.03125 318.125 33.421875 C 317.730469 33.816406 317.378906 34.242188 317.066406 34.703125 C 316.753906 35.164062 316.488281 35.652344 316.273438 36.164062 C 316.058594 36.679688 315.894531 37.210938 315.785156 37.753906 C 315.671875 38.300781 315.613281 38.851562 315.613281 39.410156 C 315.609375 39.964844 315.660156 40.519531 315.765625 41.066406 C 315.871094 41.613281 316.03125 42.144531 316.242188 42.660156 C 316.453125 43.175781 316.710938 43.664062 317.019531 44.128906 C 317.324219 44.59375 317.675781 45.023438 318.066406 45.421875 C 318.457031 45.816406 318.886719 46.171875 319.347656 46.484375 C 319.808594 46.792969 320.296875 47.058594 320.808594 47.273438 C 321.324219 47.492188 321.851562 47.652344 322.398438 47.765625 L 344.328125 52.160156 L 229.074219 131.546875 L 140.109375 91.121094 C 139.480469 90.835938 138.832031 90.628906 138.15625 90.503906 C 137.480469 90.375 136.796875 90.332031 136.109375 90.371094 C 135.425781 90.410156 134.753906 90.53125 134.09375 90.734375 C 133.4375 90.9375 132.816406 91.214844 132.226562 91.570312 L 4.964844 167.925781 C 4.167969 168.40625 3.472656 168.996094 2.871094 169.703125 C 2.269531 170.410156 1.796875 171.195312 1.453125 172.054688 C 1.109375 172.917969 0.914062 173.808594 0.863281 174.734375 C 0.8125 175.660156 0.910156 176.570312 1.160156 177.464844 C 1.40625 178.359375 1.792969 179.1875 2.3125 179.957031 C 2.832031 180.726562 3.460938 181.390625 4.199219 181.949219 C 4.9375 182.511719 5.746094 182.941406 6.625 183.238281 C 7.503906 183.535156 8.40625 183.683594 9.332031 183.683594 Z M 9.332031 183.683594 "/><path style=" stroke:none;fill-rule:nonzero;fill:#ffffff;fill-opacity:1;" d="M 365.667969 327.914062 L 365.667969 141.261719 C 365.667969 140.707031 365.640625 140.152344 365.585938 139.597656 C 365.53125 139.046875 365.449219 138.496094 365.339844 137.949219 C 365.234375 137.40625 365.097656 136.867188 364.9375 136.335938 C 364.777344 135.804688 364.589844 135.28125 364.375 134.769531 C 364.164062 134.253906 363.925781 133.753906 363.664062 133.261719 C 363.402344 132.773438 363.117188 132.296875 362.808594 131.835938 C 362.5 131.371094 362.167969 130.925781 361.816406 130.496094 C 361.464844 130.066406 361.089844 129.65625 360.699219 129.261719 C 360.304688 128.871094 359.894531 128.496094 359.464844 128.144531 C 359.035156 127.792969 358.589844 127.460938 358.125 127.152344 C 357.664062 126.84375 357.1875 126.558594 356.699219 126.296875 C 356.207031 126.035156 355.707031 125.796875 355.191406 125.585938 C 354.679688 125.371094 354.15625 125.183594 353.625 125.023438 C 353.09375 124.863281 352.554688 124.726562 352.007812 124.617188 C 351.464844 124.511719 350.914062 124.429688 350.363281 124.375 C 349.808594 124.320312 349.253906 124.292969 348.699219 124.292969 L 306.277344 124.292969 C 305.722656 124.292969 305.167969 124.320312 304.613281 124.375 C 304.0625 124.429688 303.511719 124.511719 302.96875 124.617188 C 302.421875 124.726562 301.882812 124.863281 301.351562 125.023438 C 300.820312 125.183594 300.296875 125.371094 299.785156 125.585938 C 299.269531 125.796875 298.769531 126.035156 298.28125 126.296875 C 297.789062 126.558594 297.3125 126.84375 296.851562 127.152344 C 296.390625 127.460938 295.941406 127.792969 295.511719 128.144531 C 295.085938 128.496094 294.671875 128.871094 294.28125 129.261719 C 293.886719 129.65625 293.515625 130.066406 293.160156 130.496094 C 292.808594 130.925781 292.476562 131.371094 292.167969 131.835938 C 291.859375 132.296875 291.574219 132.773438 291.3125 133.261719 C 291.050781 133.753906 290.8125 134.253906 290.601562 134.769531 C 290.390625 135.28125 290.203125 135.804688 290.039062 136.335938 C 289.878906 136.867188 289.746094 137.40625 289.636719 137.949219 C 289.527344 138.496094 289.445312 139.046875 289.390625 139.597656 C 289.335938 140.152344 289.308594 140.707031 289.308594 141.261719 L 289.308594 327.914062 L 272.339844 327.914062 L 272.339844 200.652344 C 272.339844 200.09375 272.3125 199.539062 272.261719 198.988281 C 272.207031 198.433594 272.125 197.886719 272.015625 197.339844 C 271.90625 196.796875 271.773438 196.257812 271.609375 195.726562 C 271.449219 195.191406 271.261719 194.671875 271.050781 194.15625 C 270.835938 193.644531 270.601562 193.140625 270.339844 192.652344 C 270.074219 192.160156 269.789062 191.683594 269.480469 191.222656 C 269.171875 190.761719 268.84375 190.316406 268.488281 189.886719 C 268.136719 189.457031 267.765625 189.046875 267.371094 188.652344 C 266.980469 188.257812 266.566406 187.886719 266.136719 187.535156 C 265.707031 187.179688 265.261719 186.851562 264.800781 186.542969 C 264.339844 186.234375 263.863281 185.949219 263.371094 185.6875 C 262.882812 185.421875 262.378906 185.1875 261.867188 184.972656 C 261.351562 184.761719 260.832031 184.574219 260.300781 184.414062 C 259.765625 184.25 259.230469 184.117188 258.683594 184.007812 C 258.136719 183.898438 257.589844 183.816406 257.035156 183.765625 C 256.484375 183.710938 255.929688 183.683594 255.375 183.683594 L 212.953125 183.683594 C 212.398438 183.683594 211.84375 183.710938 211.289062 183.765625 C 210.734375 183.816406 210.1875 183.898438 209.640625 184.007812 C 209.097656 184.117188 208.558594 184.25 208.027344 184.414062 C 207.496094 184.574219 206.972656 184.761719 206.457031 184.972656 C 205.945312 185.1875 205.445312 185.421875 204.953125 185.6875 C 204.464844 185.949219 203.988281 186.234375 203.523438 186.542969 C 203.0625 186.851562 202.617188 187.179688 202.1875 187.535156 C 201.757812 187.886719 201.347656 188.257812 200.953125 188.652344 C 200.5625 189.046875 200.1875 189.457031 199.835938 189.886719 C 199.484375 190.316406 199.152344 190.761719 198.84375 191.222656 C 198.535156 191.683594 198.25 192.160156 197.988281 192.652344 C 197.726562 193.140625 197.488281 193.644531 197.277344 194.15625 C 197.0625 194.671875 196.875 195.191406 196.714844 195.726562 C 196.554688 196.257812 196.417969 196.796875 196.308594 197.339844 C 196.203125 197.886719 196.121094 198.433594 196.066406 198.988281 C 196.011719 199.539062 195.984375 200.09375 195.984375 200.652344 L 195.984375 327.914062 L 179.015625 327.914062 L 179.015625 175.199219 C 179.015625 174.640625 178.988281 174.085938 178.933594 173.535156 C 178.878906 172.980469 178.796875 172.433594 178.691406 171.886719 C 178.582031 171.34375 178.445312 170.804688 178.285156 170.273438 C 178.125 169.742188 177.9375 169.21875 177.722656 168.703125 C 177.511719 168.191406 177.273438 167.6875 177.011719 167.199219 C 176.75 166.710938 176.464844 166.234375 176.15625 165.769531 C 175.847656 165.308594 175.515625 164.863281 175.164062 164.433594 C 174.8125 164.003906 174.4375 163.59375 174.046875 163.199219 C 173.652344 162.804688 173.242188 162.433594 172.8125 162.082031 C 172.382812 161.730469 171.9375 161.398438 171.472656 161.089844 C 171.011719 160.78125 170.535156 160.496094 170.046875 160.234375 C 169.554688 159.972656 169.054688 159.734375 168.539062 159.519531 C 168.027344 159.308594 167.503906 159.121094 166.972656 158.960938 C 166.441406 158.800781 165.902344 158.664062 165.359375 158.554688 C 164.8125 158.445312 164.265625 158.367188 163.710938 158.3125 C 163.15625 158.257812 162.601562 158.230469 162.046875 158.230469 L 119.625 158.230469 C 119.070312 158.230469 118.515625 158.257812 117.964844 158.3125 C 117.410156 158.367188 116.863281 158.445312 116.316406 158.554688 C 115.769531 158.664062 115.234375 158.800781 114.699219 158.960938 C 114.167969 159.121094 113.648438 159.308594 113.132812 159.519531 C 112.621094 159.734375 112.117188 159.972656 111.628906 160.234375 C 111.136719 160.496094 110.660156 160.78125 110.199219 161.089844 C 109.738281 161.398438 109.292969 161.730469 108.863281 162.082031 C 108.433594 162.433594 108.019531 162.804688 107.628906 163.199219 C 107.234375 163.59375 106.863281 164.003906 106.511719 164.433594 C 106.15625 164.863281 105.828125 165.308594 105.519531 165.769531 C 105.210938 166.234375 104.925781 166.710938 104.660156 167.199219 C 104.398438 167.6875 104.164062 168.191406 103.949219 168.703125 C 103.738281 169.21875 103.550781 169.742188 103.390625 170.273438 C 103.226562 170.804688 103.09375 171.34375 102.984375 171.886719 C 102.875 172.433594 102.792969 172.980469 102.738281 173.535156 C 102.6875 174.085938 102.660156 174.640625 102.660156 175.199219 L 102.660156 327.914062 L 85.691406 327.914062 L 85.691406 226.101562 C 85.691406 225.546875 85.664062 224.992188 85.609375 224.441406 C 85.554688 223.886719 85.472656 223.335938 85.363281 222.792969 C 85.253906 222.246094 85.121094 221.710938 84.960938 221.175781 C 84.796875 220.644531 84.609375 220.121094 84.398438 219.609375 C 84.1875 219.097656 83.949219 218.59375 83.6875 218.105469 C 83.425781 217.613281 83.140625 217.136719 82.832031 216.675781 C 82.523438 216.214844 82.191406 215.769531 81.839844 215.339844 C 81.484375 214.910156 81.113281 214.496094 80.71875 214.105469 C 80.328125 213.710938 79.914062 213.339844 79.484375 212.984375 C 79.058594 212.632812 78.609375 212.304688 78.148438 211.996094 C 77.6875 211.683594 77.210938 211.398438 76.71875 211.136719 C 76.230469 210.875 75.730469 210.640625 75.214844 210.425781 C 74.703125 210.214844 74.179688 210.027344 73.648438 209.867188 C 73.117188 209.703125 72.578125 209.570312 72.03125 209.460938 C 71.488281 209.351562 70.9375 209.269531 70.386719 209.214844 C 69.832031 209.160156 69.277344 209.132812 68.722656 209.132812 L 26.300781 209.132812 C 25.746094 209.132812 25.191406 209.160156 24.636719 209.214844 C 24.085938 209.269531 23.535156 209.351562 22.992188 209.460938 C 22.445312 209.570312 21.90625 209.703125 21.375 209.867188 C 20.84375 210.027344 20.320312 210.214844 19.808594 210.425781 C 19.292969 210.640625 18.792969 210.875 18.300781 211.136719 C 17.8125 211.398438 17.335938 211.683594 16.875 211.996094 C 16.410156 212.304688 15.964844 212.632812 15.535156 212.984375 C 15.105469 213.339844 14.695312 213.710938 14.300781 214.105469 C 13.910156 214.496094 13.535156 214.910156 13.183594 215.339844 C 12.832031 215.769531 12.5 216.214844 12.191406 216.675781 C 11.882812 217.136719 11.597656 217.613281 11.335938 218.105469 C 11.074219 218.59375 10.835938 219.097656 10.625 219.609375 C 10.410156 220.121094 10.222656 220.644531 10.0625 221.175781 C 9.902344 221.710938 9.765625 222.246094 9.660156 222.792969 C 9.550781 223.335938 9.46875 223.886719 9.414062 224.441406 C 9.359375 224.992188 9.332031 225.546875 9.332031 226.101562 L 9.332031 327.914062 C 8.777344 327.914062 8.222656 327.96875 7.675781 328.074219 C 7.132812 328.183594 6.601562 328.34375 6.085938 328.558594 C 5.570312 328.773438 5.082031 329.03125 4.617188 329.34375 C 4.15625 329.652344 3.726562 330.003906 3.332031 330.398438 C 2.941406 330.792969 2.585938 331.21875 2.277344 331.683594 C 1.96875 332.148438 1.707031 332.636719 1.496094 333.148438 C 1.28125 333.664062 1.121094 334.195312 1.011719 334.742188 C 0.902344 335.289062 0.847656 335.839844 0.847656 336.398438 C 0.847656 336.953125 0.902344 337.503906 1.011719 338.050781 C 1.121094 338.597656 1.28125 339.128906 1.496094 339.644531 C 1.707031 340.160156 1.96875 340.648438 2.277344 341.109375 C 2.585938 341.574219 2.941406 342.003906 3.332031 342.394531 C 3.726562 342.789062 4.15625 343.140625 4.617188 343.453125 C 5.082031 343.761719 5.570312 344.023438 6.085938 344.234375 C 6.601562 344.449219 7.132812 344.609375 7.675781 344.71875 C 8.222656 344.828125 8.777344 344.882812 9.332031 344.882812 L 365.667969 344.882812 C 366.222656 344.882812 366.777344 344.828125 367.324219 344.71875 C 367.867188 344.609375 368.398438 344.449219 368.914062 344.234375 C 369.429688 344.023438 369.917969 343.761719 370.382812 343.453125 C 370.84375 343.140625 371.273438 342.789062 371.667969 342.394531 C 372.058594 342.003906 372.414062 341.574219 372.722656 341.109375 C 373.03125 340.648438 373.292969 340.160156 373.503906 339.644531 C 373.71875 339.128906 373.878906 338.597656 373.988281 338.050781 C 374.097656 337.503906 374.152344 336.953125 374.152344 336.398438 C 374.152344 335.839844 374.097656 335.289062 373.988281 334.742188 C 373.878906 334.195312 373.71875 333.664062 373.503906 333.148438 C 373.292969 332.636719 373.03125 332.148438 372.722656 331.683594 C 372.414062 331.21875 372.058594 330.792969 371.667969 330.398438 C 371.273438 330.003906 370.84375 329.652344 370.382812 329.34375 C 369.917969 329.03125 369.429688 328.773438 368.914062 328.558594 C 368.398438 328.34375 367.867188 328.183594 367.324219 328.074219 C 366.777344 327.96875 366.222656 327.914062 365.667969 327.914062 Z M 306.277344 141.261719 L 348.699219 141.261719 L 348.699219 327.914062 L 306.277344 327.914062 Z M 212.953125 200.652344 L 255.375 200.652344 L 255.375 327.914062 L 212.953125 327.914062 Z M 119.625 175.199219 L 162.046875 175.199219 L 162.046875 327.914062 L 119.625 327.914062 Z M 26.300781 226.101562 L 68.722656 226.101562 L 68.722656 327.914062 L 26.300781 327.914062 Z M 26.300781 226.101562 "/></g></svg>