<svg xmlns="http://www.w3.org/2000/svg" xmlns:xlink="http://www.w3.org/1999/xlink" width="500" zoomAndPan="magnify" viewBox="0 0 375 374.999991" height="500" preserveAspectRatio="xMidYMid meet" version="1.2"><defs><clipPath id="2e3a95ae23"><path d="M 2 0.5625 L 373 0.5625 L 373 370 L 2 370 Z M 2 0.5625 "/></clipPath></defs><g id="5ddf320329"><g clip-rule="nonzero" clip-path="url(#2e3a95ae23)"><path style=" stroke:none;fill-rule:nonzero;fill:#ffffff;fill-opacity:1;" d="M 371.050781 210.820312 L 329.566406 139.789062 C 326.726562 134.675781 319.339844 132.402344 314.222656 135.8125 L 297.175781 146.039062 C 291.492188 149.449219 289.789062 156.269531 293.199219 161.382812 L 293.765625 162.519531 C 285.808594 163.085938 272.742188 160.8125 263.648438 157.972656 C 257.964844 156.269531 252.851562 155.699219 248.304688 155.132812 L 248.304688 6.246094 C 248.304688 2.835938 246.03125 0.5625 242.621094 0.5625 L 58.503906 0.5625 C 58.503906 0.5625 58.503906 0.5625 57.933594 0.5625 C 57.367188 0.5625 56.796875 0.5625 56.230469 1.128906 C 56.230469 1.128906 55.660156 1.128906 55.660156 1.128906 C 55.09375 1.128906 54.523438 1.699219 53.957031 2.265625 C 0.539062 55.683594 3.949219 51.707031 3.378906 53.980469 C 3.378906 54.546875 2.8125 55.683594 2.8125 55.683594 L 2.8125 364.253906 C 2.8125 367.664062 5.085938 369.9375 8.496094 369.9375 L 241.484375 369.9375 C 244.894531 369.9375 247.167969 367.664062 247.167969 364.253906 L 247.167969 307.996094 C 254.554688 311.40625 263.078125 308.5625 267.625 301.746094 C 268.761719 299.472656 269.898438 297.199219 269.898438 294.925781 C 276.148438 295.496094 281.832031 292.085938 284.675781 287.539062 C 286.378906 285.265625 286.945312 282.425781 286.945312 279.582031 C 292.0625 279.582031 297.175781 276.742188 300.585938 272.195312 C 301.722656 269.921875 302.859375 267.648438 302.859375 264.808594 C 309.109375 265.375 314.792969 261.964844 317.632812 257.421875 C 319.90625 254.011719 321.042969 249.464844 319.90625 244.917969 C 324.453125 241.507812 329 236.960938 332.976562 232.417969 L 332.976562 232.984375 C 335.25 236.394531 338.660156 238.667969 342.636719 238.667969 C 344.910156 238.667969 346.617188 238.097656 348.320312 236.960938 L 365.367188 226.734375 C 372.753906 223.324219 374.460938 216.503906 371.050781 210.820312 Z M 52.820312 19.882812 L 52.820312 50 L 22.703125 50 Z M 14.746094 358.570312 L 14.746094 61.367188 L 58.503906 61.367188 C 61.914062 61.367188 64.1875 59.09375 64.1875 55.683594 L 64.1875 11.929688 L 236.371094 11.929688 L 236.371094 155.132812 C 225.003906 155.699219 205.683594 160.8125 199.433594 169.90625 C 189.773438 169.339844 181.816406 166.496094 176.132812 163.085938 L 177.269531 160.8125 C 180.679688 155.132812 178.40625 148.3125 173.292969 145.472656 L 156.246094 135.242188 C 151.128906 132.402344 143.742188 134.105469 140.902344 139.21875 L 99.417969 210.253906 C 96.007812 215.9375 98.28125 222.753906 103.394531 225.597656 L 120.445312 235.824219 C 125.558594 239.234375 132.378906 236.960938 135.789062 231.847656 C 140.332031 236.960938 142.605469 240.371094 144.3125 243.214844 L 142.605469 245.488281 C 136.925781 252.304688 137.492188 263.101562 144.3125 268.785156 C 147.152344 271.058594 151.128906 272.761719 155.109375 272.761719 C 155.109375 272.761719 155.109375 272.761719 155.675781 272.761719 C 156.8125 281.289062 164.769531 288.105469 174.429688 286.402344 C 174.996094 289.8125 177.269531 292.652344 179.542969 294.925781 C 182.953125 297.765625 188.066406 299.472656 193.183594 298.335938 C 194.320312 301.175781 196.023438 304.019531 198.296875 306.292969 C 205.117188 311.972656 215.914062 311.40625 221.597656 304.585938 L 228.414062 296.628906 L 236.371094 301.746094 L 236.371094 359.707031 L 14.746094 359.707031 Z M 125.558594 226.734375 L 108.511719 216.503906 L 149.996094 145.472656 L 167.042969 155.699219 Z M 222.164062 285.832031 L 213.070312 296.628906 C 211.367188 298.902344 207.957031 298.902344 205.683594 297.199219 C 203.410156 295.496094 203.410156 292.085938 205.117188 289.8125 L 214.207031 279.015625 C 215.34375 277.878906 216.480469 277.308594 218.1875 277.308594 C 219.324219 277.308594 220.460938 277.308594 221.597656 278.445312 C 223.871094 280.71875 223.871094 283.558594 222.164062 285.832031 Z M 206.820312 270.492188 L 193.75 285.832031 C 192.046875 288.105469 188.636719 288.105469 186.363281 286.402344 C 184.089844 284.695312 184.089844 281.289062 185.796875 279.015625 L 198.867188 263.671875 C 200.570312 261.398438 203.980469 261.398438 206.253906 263.101562 C 208.527344 264.808594 209.09375 268.21875 206.820312 270.492188 Z M 192.046875 254.578125 L 175.566406 273.898438 C 173.863281 276.171875 170.453125 276.171875 168.179688 274.46875 C 165.90625 272.761719 165.90625 269.355469 167.609375 267.082031 L 184.089844 247.757812 C 185.796875 245.488281 189.203125 245.488281 191.476562 247.191406 C 193.75 248.894531 193.75 252.304688 192.046875 254.578125 Z M 169.316406 247.191406 L 159.085938 259.125 C 157.382812 261.398438 153.972656 261.398438 151.699219 259.691406 C 149.425781 257.988281 149.425781 254.578125 151.128906 252.304688 C 151.699219 251.738281 161.929688 239.234375 161.359375 240.371094 C 163.0625 238.097656 166.472656 238.097656 168.746094 239.804688 C 171.019531 242.078125 171.589844 245.488281 169.316406 247.191406 Z M 309.109375 251.167969 C 307.40625 253.441406 304.5625 254.578125 302.289062 252.875 L 264.785156 229.007812 C 264.785156 229.007812 264.785156 229.007812 264.214844 229.007812 C 263.648438 229.007812 257.964844 223.324219 253.988281 229.007812 C 252.28125 231.847656 252.851562 235.257812 255.691406 236.960938 L 290.355469 259.125 C 292.628906 260.828125 293.199219 263.671875 292.0625 265.945312 C 290.355469 268.21875 287.515625 268.785156 285.242188 267.648438 L 254.554688 247.757812 C 251.714844 246.054688 248.304688 246.621094 246.601562 249.464844 C 244.894531 252.304688 245.464844 255.714844 248.304688 257.421875 L 274.445312 273.898438 C 276.71875 275.605469 277.285156 278.445312 276.148438 280.71875 C 274.445312 282.992188 271.605469 283.5625 268.761719 282.425781 C 268.195312 281.855469 247.738281 269.355469 248.304688 269.355469 C 247.738281 269.355469 245.464844 267.082031 242.054688 269.355469 C 242.054688 269.355469 240.917969 270.492188 240.347656 271.058594 C 238.644531 273.898438 239.78125 277.308594 242.054688 279.015625 C 252.851562 286.402344 261.941406 289.242188 258.535156 294.925781 C 256.828125 297.199219 253.988281 297.765625 251.714844 296.628906 L 234.667969 285.832031 C 235.804688 280.152344 234.097656 273.898438 229.550781 269.355469 C 226.710938 267.082031 223.300781 265.945312 220.460938 265.945312 C 220.460938 260.828125 218.1875 256.851562 214.777344 254.011719 C 211.9375 251.738281 209.09375 250.601562 205.683594 250.601562 C 205.683594 245.488281 203.410156 240.941406 200 238.097656 C 194.886719 233.554688 187.5 233.554688 181.25 236.394531 C 180.113281 234.6875 178.976562 232.984375 177.269531 231.28125 C 170.453125 225.597656 159.65625 226.734375 153.972656 232.984375 L 152.835938 234.6875 C 149.996094 231.28125 147.152344 226.734375 142.605469 222.1875 L 171.589844 173.316406 C 177.269531 176.15625 184.660156 179.566406 194.320312 180.703125 L 184.089844 197.75 C 182.386719 200.59375 181.816406 203.433594 182.953125 206.84375 C 184.089844 209.683594 185.796875 212.527344 189.203125 213.664062 C 196.023438 217.074219 209.664062 218.777344 227.277344 197.75 C 228.414062 197.183594 230.121094 196.046875 232.960938 196.046875 L 272.171875 219.914062 L 309.679688 243.78125 C 310.246094 245.488281 310.8125 248.328125 309.109375 251.167969 Z M 314.792969 234.6875 C 314.792969 234.6875 314.222656 234.121094 314.222656 234.121094 L 276.71875 210.253906 L 236.371094 185.25 C 234.667969 184.113281 233.53125 184.113281 231.824219 184.113281 C 227.847656 184.683594 219.890625 186.953125 218.1875 189.796875 C 209.09375 201.730469 200 206.277344 193.75 203.433594 C 210.800781 175.589844 209.664062 176.15625 211.367188 175.019531 C 215.914062 171.613281 234.097656 161.382812 261.941406 168.769531 C 266.488281 169.90625 288.082031 175.589844 301.152344 172.75 L 329.566406 221.621094 C 324.453125 226.164062 319.339844 231.28125 314.792969 234.6875 Z M 344.34375 226.734375 L 302.859375 155.699219 L 319.90625 145.472656 L 361.390625 216.503906 Z M 344.34375 226.734375 "/></g><path style=" stroke:none;fill-rule:nonzero;fill:#ffffff;fill-opacity:1;" d="M 94.871094 67.050781 L 205.117188 67.050781 C 208.527344 67.050781 210.800781 64.777344 210.800781 61.367188 C 210.800781 57.957031 208.527344 55.683594 205.117188 55.683594 L 94.871094 55.683594 C 91.460938 55.683594 89.1875 57.957031 89.1875 61.367188 C 89.1875 64.207031 92.03125 67.050781 94.871094 67.050781 Z M 94.871094 67.050781 "/><path style=" stroke:none;fill-rule:nonzero;fill:#ffffff;fill-opacity:1;" d="M 45.433594 109.671875 L 205.117188 109.671875 C 208.527344 109.671875 210.800781 107.398438 210.800781 103.988281 C 210.800781 100.578125 208.527344 98.304688 205.117188 98.304688 L 45.433594 98.304688 C 42.023438 98.304688 39.75 100.578125 39.75 103.988281 C 39.75 107.398438 42.589844 109.671875 45.433594 109.671875 Z M 45.433594 109.671875 "/><path style=" stroke:none;fill-rule:nonzero;fill:#ffffff;fill-opacity:1;" d="M 45.433594 152.859375 L 77.253906 152.859375 C 80.664062 152.859375 82.9375 150.585938 82.9375 147.175781 C 82.9375 143.765625 80.664062 141.492188 77.253906 141.492188 L 45.433594 141.492188 C 42.023438 141.492188 39.75 143.765625 39.75 147.175781 C 39.75 150.585938 42.589844 152.859375 45.433594 152.859375 Z M 45.433594 152.859375 "/><path style=" stroke:none;fill-rule:nonzero;fill:#ffffff;fill-opacity:1;" d="M 45.433594 196.046875 L 65.890625 196.046875 C 69.300781 196.046875 71.574219 193.773438 71.574219 190.363281 C 71.574219 186.953125 69.300781 184.683594 65.890625 184.683594 L 45.433594 184.683594 C 42.023438 184.683594 39.75 186.953125 39.75 190.363281 C 39.75 193.207031 42.589844 196.046875 45.433594 196.046875 Z M 45.433594 196.046875 "/><path style=" stroke:none;fill-rule:nonzero;fill:#ffffff;fill-opacity:1;" d="M 45.433594 238.097656 L 65.890625 238.097656 C 69.300781 238.097656 71.574219 235.824219 71.574219 232.417969 C 71.574219 229.007812 69.300781 226.734375 65.890625 226.734375 L 45.433594 226.734375 C 42.023438 226.734375 39.75 229.007812 39.75 232.417969 C 39.75 235.824219 42.589844 238.097656 45.433594 238.097656 Z M 45.433594 238.097656 "/><path style=" stroke:none;fill-rule:nonzero;fill:#ffffff;fill-opacity:1;" d="M 45.433594 281.855469 L 104.53125 281.855469 C 107.941406 281.855469 110.214844 279.582031 110.214844 276.171875 C 110.214844 272.761719 107.941406 270.492188 104.53125 270.492188 L 45.433594 270.492188 C 42.023438 270.492188 39.75 272.761719 39.75 276.171875 C 39.75 279.582031 42.589844 281.855469 45.433594 281.855469 Z M 45.433594 281.855469 "/><path style=" stroke:none;fill-rule:nonzero;fill:#ffffff;fill-opacity:1;" d="M 142.605469 313.679688 L 45.433594 313.679688 C 42.023438 313.679688 39.75 315.953125 39.75 319.363281 C 39.75 322.769531 42.023438 325.042969 45.433594 325.042969 L 142.605469 325.042969 C 146.015625 325.042969 148.289062 322.769531 148.289062 319.363281 C 148.289062 315.953125 146.015625 313.679688 142.605469 313.679688 Z M 142.605469 313.679688 "/></g></svg>