<svg xmlns="http://www.w3.org/2000/svg" xmlns:xlink="http://www.w3.org/1999/xlink" width="500" zoomAndPan="magnify" viewBox="0 0 375 374.999991" height="500" preserveAspectRatio="xMidYMid meet" version="1.2"><g id="2693b9dd5b"><path style=" stroke:none;fill-rule:nonzero;fill:#ffffff;fill-opacity:1;" d="M 312.761719 193.285156 L 347.914062 193.285156 C 349.222656 193.285156 350.363281 194.078125 350.785156 195.363281 L 364.792969 236.605469 C 365.328125 238.191406 365.117188 239.050781 364.628906 239.867188 C 364.164062 240.703125 363.234375 241.449219 362.136719 241.824219 C 361.023438 242.167969 359.875 242.148438 358.945312 241.730469 C 358.082031 241.335938 357.265625 240.636719 356.613281 238.9375 L 351.558594 224.128906 C 349.945312 218.367188 341.320312 221.332031 343.558594 226.855469 L 357.476562 267.445312 L 347.054688 271.335938 C 345.394531 271.96875 344.300781 273.527344 344.300781 275.296875 L 344.300781 299.148438 C 344.300781 300.898438 343.765625 301.667969 342.945312 302.351562 C 342.136719 303.046875 340.800781 303.511719 339.421875 303.511719 C 338.027344 303.511719 336.695312 303.046875 335.882812 302.351562 C 335.0625 301.667969 334.550781 300.898438 334.550781 299.148438 L 334.550781 275.304688 C 334.601562 272.925781 332.640625 270.96875 330.257812 271.019531 C 327.933594 271.035156 326.066406 272.976562 326.109375 275.304688 L 326.109375 299.152344 C 326.109375 300.902344 325.59375 301.671875 324.78125 302.355469 C 323.96875 303.050781 322.636719 303.519531 321.238281 303.519531 C 319.859375 303.519531 318.53125 303.050781 317.714844 302.355469 C 316.875 301.671875 316.335938 300.902344 316.335938 299.152344 L 316.335938 275.304688 C 316.335938 273.53125 315.246094 271.972656 313.613281 271.339844 L 303.191406 267.449219 L 317.109375 226.859375 C 318.160156 223.972656 315.851562 220.964844 312.773438 221.21875 C 311.089844 221.355469 309.625 222.503906 309.109375 224.132812 L 304.054688 238.917969 C 303.394531 240.640625 302.585938 241.339844 301.722656 241.734375 C 300.792969 242.160156 299.644531 242.175781 298.554688 241.828125 C 297.429688 241.453125 296.5 240.703125 296.03125 239.871094 C 295.566406 239.050781 295.335938 238.191406 295.871094 236.609375 L 309.878906 195.367188 C 310.308594 194.078125 311.453125 193.285156 312.761719 193.285156 Z M 26.894531 193.285156 L 62.058594 193.285156 C 63.339844 193.285156 64.503906 194.078125 64.921875 195.363281 L 78.9375 236.605469 C 79.453125 238.121094 79.21875 238.914062 78.792969 239.660156 C 78.398438 240.382812 77.558594 241.035156 76.578125 241.363281 C 75.597656 241.683594 74.59375 241.667969 73.804688 241.289062 C 73.015625 240.9375 72.269531 240.382812 71.6875 238.699219 L 66.671875 224.128906 C 66.113281 222.476562 64.578125 221.332031 62.855469 221.261719 C 60.449219 221.167969 58.445312 223.101562 58.445312 225.507812 L 58.445312 299.152344 C 58.445312 300.902344 57.90625 301.671875 57.097656 302.355469 C 56.277344 303.050781 54.949219 303.519531 53.550781 303.519531 C 52.171875 303.519531 50.847656 303.050781 50.027344 302.355469 C 49.210938 301.671875 48.699219 300.902344 48.699219 299.152344 L 48.699219 259.097656 C 48.75 256.722656 46.789062 254.765625 44.414062 254.8125 C 42.082031 254.855469 40.21875 256.769531 40.238281 259.097656 L 40.238281 299.152344 C 40.238281 300.902344 39.75 301.671875 38.9375 302.355469 C 38.09375 303.050781 36.789062 303.519531 35.390625 303.519531 C 34.015625 303.519531 32.664062 303.050781 31.84375 302.355469 C 31.035156 301.671875 30.496094 300.902344 30.496094 299.152344 L 30.496094 225.507812 C 30.496094 223.125 28.542969 221.214844 26.160156 221.28125 C 24.410156 221.304688 22.847656 222.449219 22.269531 224.128906 L 17.257812 238.699219 C 16.667969 240.382812 15.925781 240.9375 15.128906 241.289062 C 14.34375 241.667969 13.316406 241.683594 12.335938 241.363281 C 11.355469 241.035156 10.515625 240.382812 10.121094 239.660156 C 9.695312 238.914062 9.488281 238.121094 10 236.605469 L 24.015625 195.363281 C 24.445312 194.078125 25.585938 193.285156 26.894531 193.285156 Z M 249.664062 135.8125 L 261.304688 135.8125 C 263.492188 135.835938 265.453125 137.070312 266.429688 139.003906 L 297.460938 200.300781 C 298.117188 201.605469 298.28125 202.609375 298.179688 203.519531 L 297.53125 205.429688 C 296.972656 206.453125 296.085938 207.386719 294.917969 207.996094 C 293.519531 208.691406 291.910156 208.875 290.605469 208.554688 C 289.324219 208.199219 288.160156 207.457031 287.15625 205.453125 L 264.933594 161.457031 C 263.210938 158.054688 258.171875 158.519531 257.097656 162.179688 L 251.640625 180.902344 C 251.382812 181.785156 251.429688 182.765625 251.78125 183.628906 L 278.125 249.054688 L 260.78125 255.511719 C 259.121094 256.117188 258.027344 257.703125 258.027344 259.472656 L 258.050781 295.03125 C 258.050781 298.128906 256.976562 299.921875 255.324219 301.300781 C 253.640625 302.699219 251.148438 303.519531 248.609375 303.519531 C 246.066406 303.519531 243.59375 302.699219 241.914062 301.300781 C 240.261719 299.921875 239.1875 298.128906 239.1875 295.03125 L 239.1875 259.269531 C 239.234375 256.886719 237.273438 254.953125 234.902344 254.976562 C 232.542969 255.023438 230.707031 256.929688 230.726562 259.269531 L 230.726562 295.03125 C 230.726562 298.128906 229.65625 299.921875 228 301.300781 C 226.320312 302.699219 223.851562 303.519531 221.308594 303.519531 C 218.769531 303.519531 216.277344 302.699219 214.613281 301.300781 C 212.9375 299.921875 211.863281 298.128906 211.863281 295.03125 L 211.863281 260.242188 C 211.863281 256.558594 210.441406 256.050781 208.386719 255.28125 L 191.765625 249.101562 L 218.109375 183.65625 C 218.464844 182.792969 218.507812 181.8125 218.253906 180.902344 L 212.796875 162.226562 C 211.699219 158.542969 206.6875 158.078125 204.957031 161.480469 L 182.785156 205.453125 C 181.761719 207.457031 180.597656 208.207031 179.3125 208.554688 C 178.007812 208.875 176.398438 208.691406 175.019531 207.996094 C 173.625 207.296875 172.527344 206.152344 172.035156 204.914062 C 171.546875 203.679688 171.457031 202.304688 172.460938 200.300781 L 182.554688 180.339844 C 182.648438 180.226562 182.699219 180.085938 182.765625 179.945312 L 203.46875 139 C 204.449219 137.066406 206.40625 135.828125 208.59375 135.808594 L 220.210938 135.808594 C 220.421875 135.929688 220.464844 135.972656 220.746094 136.089844 C 230.363281 140.214844 240.832031 139.800781 249.664062 135.8125 Z M 102.222656 135.738281 L 112.128906 135.738281 C 112.902344 136.164062 113.671875 136.582031 114.488281 136.933594 C 124.75 141.339844 135.917969 140.519531 145.105469 135.738281 L 155.058594 135.738281 C 157.945312 135.761719 160.46875 137.535156 161.375 140.238281 L 174.316406 177.945312 L 165.925781 194.566406 L 159.957031 177.21875 C 158.394531 172.71875 151.726562 173.835938 151.726562 178.617188 L 151.726562 295.027344 C 151.726562 298.125 150.671875 299.917969 149 301.296875 C 147.320312 302.695312 144.847656 303.511719 142.304688 303.511719 C 139.765625 303.511719 137.269531 302.695312 135.613281 301.296875 C 133.933594 299.917969 132.886719 298.125 132.886719 295.027344 L 132.886719 230.746094 C 132.9375 228.367188 131.003906 226.433594 128.59375 226.460938 C 126.265625 226.5 124.402344 228.417969 124.421875 230.746094 L 124.421875 295.027344 C 124.421875 298.125 123.371094 299.917969 121.695312 301.296875 C 120.019531 302.695312 117.523438 303.511719 114.980469 303.511719 C 112.460938 303.511719 109.992188 302.695312 108.316406 301.296875 C 106.632812 299.917969 105.5625 298.125 105.5625 295.027344 L 105.5625 178.621094 C 105.5625 176.222656 103.582031 174.304688 101.199219 174.375 C 99.449219 174.449219 97.917969 175.5625 97.332031 177.222656 L 87.535156 205.785156 C 86.605469 208.4375 85.25 209.46875 83.597656 210.003906 C 82.128906 210.492188 80.335938 210.375 78.726562 209.75 L 75.414062 199.976562 L 95.933594 140.242188 C 96.839844 137.5625 99.359375 135.761719 102.222656 135.738281 Z M 102.222656 127.300781 C 95.792969 127.300781 90.007812 131.40625 87.914062 137.492188 L 70.402344 188.503906 C 68.285156 186.242188 65.296875 184.847656 62.058594 184.820312 L 26.894531 184.820312 C 21.972656 184.84375 17.597656 187.988281 16.007812 192.660156 L 1.992188 233.878906 C 0.804688 237.375 1.179688 241.007812 2.710938 243.785156 C 4.273438 246.539062 6.816406 248.445312 9.636719 249.402344 C 12.433594 250.335938 15.652344 250.335938 18.589844 249.03125 C 19.847656 248.472656 20.996094 247.613281 22.023438 246.558594 L 22.023438 299.152344 C 22.023438 303.140625 23.796875 306.660156 26.40625 308.828125 C 29 311.023438 32.210938 311.980469 35.382812 311.980469 C 38.550781 311.980469 41.742188 311.023438 44.335938 308.828125 L 44.589844 308.828125 C 47.179688 311.023438 50.394531 311.980469 53.542969 311.980469 C 56.710938 311.980469 59.953125 311.023438 62.542969 308.828125 C 65.128906 306.660156 66.898438 303.136719 66.898438 299.152344 L 66.898438 246.558594 C 67.925781 247.613281 69.070312 248.472656 70.324219 249.03125 C 73.265625 250.335938 76.484375 250.335938 79.300781 249.402344 C 82.097656 248.449219 84.617188 246.539062 86.15625 243.785156 C 87.71875 241.007812 88.113281 237.375 86.929688 233.878906 L 81.769531 218.746094 C 83.261719 218.726562 84.757812 218.554688 86.230469 218.066406 C 90.234375 216.765625 93.828125 213.40625 95.503906 208.558594 L 97.117188 203.917969 L 97.117188 295.035156 C 97.117188 300.421875 99.421875 304.96875 102.878906 307.816406 C 106.328125 310.679688 110.683594 311.988281 114.976562 311.988281 C 119.269531 311.988281 123.625 310.679688 127.078125 307.816406 L 128.667969 306.34375 L 130.230469 307.816406 C 133.679688 310.679688 138.011719 311.988281 142.300781 311.988281 C 146.59375 311.988281 150.949219 310.679688 154.402344 307.816406 C 157.859375 304.96875 160.183594 300.421875 160.183594 295.035156 L 160.183594 203.914062 L 161.773438 208.554688 C 163.78125 214.355469 168.882812 217.972656 173.804688 218.15625 C 182.058594 218.484375 187.046875 215.804688 190.335938 209.273438 L 207.679688 174.910156 L 209.734375 181.855469 L 182.289062 249.957031 C 181.410156 252.144531 182.5 254.667969 184.738281 255.507812 L 203.414062 262.457031 L 203.414062 295.027344 C 203.414062 300.410156 205.796875 304.960938 209.246094 307.804688 C 212.671875 310.671875 217.035156 311.980469 221.320312 311.980469 C 225.613281 311.980469 229.972656 310.671875 233.425781 307.804688 L 234.984375 306.476562 L 236.523438 307.804688 C 239.972656 310.671875 244.332031 311.980469 248.625 311.980469 C 252.910156 311.980469 257.277344 310.671875 260.726562 307.804688 C 264.152344 304.960938 266.53125 300.410156 266.53125 295.027344 L 266.511719 262.40625 L 285.164062 255.457031 C 287.402344 254.640625 288.515625 252.125 287.613281 249.90625 L 260.195312 181.851562 L 262.199219 174.882812 L 279.617188 209.273438 C 281.601562 213.191406 284.933594 215.78125 288.476562 216.710938 C 290.175781 217.152344 291.929688 217.246094 293.609375 217.054688 L 287.898438 233.867188 C 286.640625 237.503906 287.078125 241.257812 288.710938 244.105469 C 290.34375 246.949219 292.976562 248.882812 295.910156 249.867188 C 297.242188 250.285156 298.664062 250.496094 300.113281 250.496094 L 293.90625 268.582031 C 293.160156 270.753906 294.28125 273.109375 296.398438 273.902344 L 307.894531 278.234375 L 307.894531 299.148438 C 307.894531 303.136719 309.667969 306.65625 312.28125 308.824219 C 314.863281 311.019531 318.082031 311.972656 321.257812 311.972656 C 324.425781 311.972656 327.617188 311.019531 330.210938 308.824219 L 330.484375 308.824219 C 333.074219 311.019531 336.265625 311.972656 339.4375 311.972656 C 342.589844 311.972656 345.828125 311.019531 348.410156 308.824219 C 351.003906 306.65625 352.777344 303.132812 352.777344 299.148438 L 352.777344 278.234375 L 364.273438 273.902344 C 366.417969 273.109375 367.53125 270.753906 366.78125 268.582031 L 360.605469 250.496094 C 362.035156 250.496094 363.453125 250.285156 364.777344 249.867188 C 367.695312 248.882812 370.351562 246.949219 371.988281 244.105469 C 373.617188 241.257812 374.035156 237.503906 372.800781 233.867188 L 358.792969 192.648438 C 357.230469 187.980469 352.84375 184.839844 347.925781 184.8125 L 312.769531 184.8125 C 308.316406 184.832031 304.304688 187.449219 302.4375 191.414062 L 273.972656 135.152344 C 271.570312 130.371094 266.648438 127.363281 261.3125 127.34375 L 248.695312 127.34375 C 248.046875 127.363281 247.410156 127.507812 246.832031 127.785156 C 239.933594 131.097656 231.722656 131.5625 224.097656 128.273438 C 223.984375 128.234375 223.652344 128.0625 223.070312 127.785156 C 222.515625 127.511719 221.882812 127.371094 221.257812 127.34375 L 208.617188 127.34375 C 203.257812 127.363281 198.359375 130.371094 195.957031 135.152344 L 179.664062 167.398438 L 169.378906 137.480469 C 167.308594 131.398438 161.523438 127.292969 155.070312 127.292969 L 144.183594 127.292969 C 143.453125 127.292969 142.730469 127.457031 142.105469 127.808594 C 134.902344 131.867188 126.039062 132.683594 117.828125 129.164062 C 116.945312 128.789062 116.0625 128.324219 115.269531 127.855469 C 114.609375 127.484375 113.867188 127.296875 113.101562 127.296875 L 102.222656 127.296875 Z M 102.222656 127.300781 "/><path style=" stroke:none;fill-rule:evenodd;fill:#ffffff;fill-opacity:1;" d="M 120.921875 73.191406 C 125.886719 71.234375 131.597656 71.183594 136.917969 73.472656 C 147.59375 78.039062 152.390625 90.191406 147.824219 100.796875 C 143.207031 111.359375 131.011719 116.183594 120.359375 111.632812 C 109.726562 107.070312 104.902344 94.898438 109.472656 84.332031 C 111.785156 79.035156 115.957031 75.167969 120.921875 73.191406 Z M 117.84375 65.351562 C 110.871094 68.128906 104.929688 73.558594 101.710938 80.953125 C 95.300781 95.730469 102.152344 113.058594 116.984375 119.417969 C 131.832031 125.808594 149.15625 118.953125 155.59375 104.144531 L 155.59375 104.128906 L 155.613281 104.128906 C 162.003906 89.320312 155.117188 72.042969 140.246094 65.652344 C 132.839844 62.464844 124.839844 62.609375 117.84375 65.351562 Z M 117.84375 65.351562 "/><path style=" stroke:none;fill-rule:evenodd;fill:#ffffff;fill-opacity:1;" d="M 227.261719 73.191406 C 232.226562 71.234375 237.9375 71.183594 243.253906 73.472656 C 253.929688 78.039062 258.738281 90.191406 254.164062 100.796875 C 249.550781 111.402344 237.332031 116.210938 226.65625 111.632812 C 216.050781 107.070312 211.199219 94.898438 215.792969 84.332031 C 218.097656 79.035156 222.296875 75.167969 227.261719 73.191406 Z M 224.164062 65.351562 C 217.167969 68.128906 211.25 73.558594 208.03125 80.953125 C 201.621094 95.730469 208.496094 113.058594 223.320312 119.417969 C 238.179688 125.808594 255.5 118.953125 261.910156 104.144531 C 268.320312 89.320312 261.441406 72.042969 246.59375 65.652344 C 239.179688 62.464844 231.132812 62.609375 224.164062 65.351562 Z M 224.164062 65.351562 "/><path style=" stroke:none;fill-rule:evenodd;fill:#ffffff;fill-opacity:1;" d="M 50.070312 147.074219 C 56.195312 149.707031 58.949219 156.652344 56.316406 162.742188 C 53.679688 168.847656 46.6875 171.601562 40.554688 168.96875 C 34.449219 166.332031 31.722656 159.386719 34.328125 153.324219 C 36.992188 147.234375 43.957031 144.460938 50.070312 147.074219 Z M 37.804688 139.125 C 32.957031 141.058594 28.800781 144.8125 26.5625 149.960938 C 22.109375 160.246094 26.917969 172.296875 37.222656 176.730469 C 47.523438 181.160156 59.621094 176.40625 64.082031 166.09375 C 68.535156 155.792969 63.726562 143.734375 53.402344 139.308594 C 48.25 137.097656 42.683594 137.191406 37.804688 139.125 Z M 37.804688 139.125 "/><path style=" stroke:none;fill-rule:evenodd;fill:#ffffff;fill-opacity:1;" d="M 335.929688 147.074219 C 342.089844 149.707031 344.816406 156.652344 342.179688 162.742188 C 339.546875 168.847656 332.550781 171.601562 326.421875 168.96875 C 320.335938 166.332031 317.582031 159.386719 320.222656 153.324219 C 322.855469 147.234375 329.847656 144.460938 335.929688 147.074219 Z M 323.695312 139.125 C 318.824219 141.058594 314.671875 144.8125 312.457031 149.960938 C 307.980469 160.246094 312.785156 172.296875 323.089844 176.730469 C 333.421875 181.160156 345.492188 176.40625 349.945312 166.09375 C 354.402344 155.792969 349.621094 143.734375 339.292969 139.308594 C 334.140625 137.097656 328.539062 137.191406 323.695312 139.125 Z M 323.695312 139.125 "/></g></svg>