<svg xmlns="http://www.w3.org/2000/svg" xmlns:xlink="http://www.w3.org/1999/xlink" width="500" zoomAndPan="magnify" viewBox="0 0 375 374.999991" height="500" preserveAspectRatio="xMidYMid meet" version="1.2"><defs><clipPath id="f2c6952bb6"><path d="M 120.339844 37.5 L 266 37.5 L 266 345.609375 L 120.339844 345.609375 Z M 120.339844 37.5 "/></clipPath><clipPath id="010a68e29b"><path d="M 193.019531 37.5 L 265.699219 191.554688 L 193.019531 345.609375 L 120.339844 191.554688 Z M 193.019531 37.5 "/></clipPath><clipPath id="2ea1cf5fb8"><path d="M 160.949219 109.839844 L 225.222656 109.839844 L 225.222656 273 L 160.949219 273 Z M 160.949219 109.839844 "/></clipPath></defs><g id="42b60e4b08"><g style="fill:#000000;fill-opacity:1;"><g transform="translate(5.859177, 236.522016)"><path style="stroke:none" d="M 3.40625 -97.390625 L 3.40625 -99.171875 L 28.4375 -99.171875 L 58.90625 -21.21875 L 88.015625 -99.171875 L 112.640625 -99.171875 L 112.640625 -97.390625 C 109.460938 -97.390625 107.078125 -97.070312 105.484375 -96.4375 C 103.898438 -95.8125 103.0625 -93.816406 102.96875 -90.453125 L 102.96875 -9.25 C 102.96875 -5.625 103.757812 -3.46875 105.34375 -2.78125 C 106.9375 -2.101562 109.367188 -1.765625 112.640625 -1.765625 L 112.640625 0 L 78.359375 0 L 78.359375 -1.765625 C 81.617188 -1.765625 84.039062 -2.101562 85.625 -2.78125 C 87.21875 -3.46875 88.015625 -5.625 88.015625 -9.25 L 88.015625 -93.859375 L 52.921875 0 L 51.015625 0 L 16.875 -88.6875 C 16.78125 -88.875 16.707031 -89.054688 16.65625 -89.234375 C 16.613281 -89.421875 16.546875 -89.554688 16.453125 -89.640625 L 16.453125 -8.84375 C 16.546875 -5.488281 17.382812 -3.46875 18.96875 -2.78125 C 20.5625 -2.101562 22.945312 -1.765625 26.125 -1.765625 L 26.125 0 L 5.03125 0 L 5.03125 -1.765625 C 8.300781 -1.765625 10.726562 -2.101562 12.3125 -2.78125 C 13.894531 -3.46875 14.6875 -5.625 14.6875 -9.25 L 14.6875 -93.1875 C 13.507812 -95 12.082031 -96.148438 10.40625 -96.640625 C 8.726562 -97.140625 6.394531 -97.390625 3.40625 -97.390625 Z M 3.40625 -97.390625 "/></g></g><g clip-rule="nonzero" clip-path="url(#f2c6952bb6)"><g clip-rule="nonzero" clip-path="url(#010a68e29b)"><path style="fill:none;stroke-width:8.82158;stroke-linecap:butt;stroke-linejoin:miter;stroke:#004b96;stroke-opacity:1;stroke-miterlimit:4;" d="M 71.273069 0.00000241481 L 142.545093 151.070952 L 71.273069 302.141902 L 0.00104491 151.070952 Z M 71.273069 0.00000241481 " transform="matrix(1.019751,0,0,1.019751,120.338778,37.499998)"/></g></g><g clip-rule="nonzero" clip-path="url(#2ea1cf5fb8)"><path style=" stroke:none;fill-rule:nonzero;fill:#004b96;fill-opacity:1;" d="M 194.671875 214.339844 C 186.117188 207.03125 176.453125 198.988281 172.820312 191.875 C 165.378906 177.308594 173.207031 168.132812 183.316406 161.726562 C 185.925781 164.070312 188.648438 166.335938 191.28125 168.582031 C 199.835938 175.890625 209.5 183.929688 213.136719 191.042969 C 220.578125 205.609375 212.75 214.789062 202.640625 221.191406 C 200.027344 218.847656 197.304688 216.585938 194.671875 214.339844 Z M 205.300781 223.664062 C 215.414062 217.214844 225.007812 206.9375 225.007812 193.238281 C 225.007812 174.109375 211.871094 165.816406 201.265625 158.238281 C 199.5 156.980469 178.265625 142.621094 178.265625 129.183594 C 178.265625 118.203125 185.933594 113.492188 195.203125 113.492188 C 208.8125 113.492188 203.964844 125.304688 203.964844 130.660156 C 203.964844 132.941406 204.421875 135.230469 206.109375 136.761719 C 207.34375 137.886719 208.984375 138.566406 210.785156 138.566406 C 210.890625 138.566406 210.992188 138.566406 211.097656 138.5625 C 214.195312 138.425781 216.71875 136.015625 217.164062 132.949219 C 219.300781 118.304688 207.621094 109.929688 194.3125 109.929688 C 180.332031 109.929688 168.484375 122.203125 168.484375 136.183594 C 168.484375 145.503906 173.898438 152.761719 180.652344 159.257812 C 170.539062 165.703125 160.949219 175.980469 160.949219 189.683594 C 160.949219 208.8125 174.082031 217.101562 184.691406 224.679688 C 186.453125 225.9375 207.6875 240.300781 207.6875 253.738281 C 207.6875 264.714844 200.023438 269.425781 190.75 269.425781 C 177.140625 269.425781 181.988281 257.613281 181.988281 252.257812 C 181.988281 249.976562 181.53125 247.691406 179.847656 246.15625 C 178.613281 245.035156 176.972656 244.351562 175.171875 244.351562 C 175.066406 244.351562 174.960938 244.351562 174.855469 244.355469 C 171.761719 244.496094 169.238281 246.90625 168.789062 249.96875 C 166.652344 264.617188 178.332031 272.992188 191.640625 272.992188 C 205.621094 272.992188 217.46875 260.71875 217.46875 246.738281 C 217.46875 237.414062 212.058594 230.15625 205.300781 223.664062 "/></g><g style="fill:#000000;fill-opacity:1;"><g transform="translate(269.228943, 236.522016)"><path style="stroke:none" d="M 54.40625 1.625 C 45.070312 1.625 36.820312 -0.476562 29.65625 -4.6875 C 22.488281 -8.90625 16.882812 -14.707031 12.84375 -22.09375 C 8.8125 -29.488281 6.796875 -37.945312 6.796875 -47.46875 C 6.796875 -54.820312 7.882812 -61.71875 10.0625 -68.15625 C 12.238281 -74.59375 15.410156 -80.257812 19.578125 -85.15625 C 23.753906 -90.050781 28.8125 -93.859375 34.75 -96.578125 C 40.695312 -99.296875 47.429688 -100.65625 54.953125 -100.65625 C 59.304688 -100.65625 62.929688 -100.15625 65.828125 -99.15625 C 68.734375 -98.164062 71.179688 -97.171875 73.171875 -96.171875 C 75.171875 -95.171875 76.898438 -94.671875 78.359375 -94.671875 C 79.171875 -94.671875 79.984375 -94.96875 80.796875 -95.5625 C 81.617188 -96.15625 82.03125 -97.359375 82.03125 -99.171875 L 83.796875 -99.171875 L 83.796875 -65.015625 L 82.15625 -65.015625 C 82.15625 -76.441406 79.84375 -84.691406 75.21875 -89.765625 C 70.59375 -94.847656 64.25 -97.390625 56.1875 -97.390625 C 50.101562 -97.390625 44.566406 -95.757812 39.578125 -92.5 C 34.597656 -89.238281 30.609375 -84.382812 27.609375 -77.9375 C 24.617188 -71.5 23.125 -63.519531 23.125 -54 C 23.125 -44.570312 24.617188 -36.207031 27.609375 -28.90625 C 30.609375 -21.601562 34.941406 -15.910156 40.609375 -11.828125 C 46.273438 -7.753906 53.007812 -5.71875 60.8125 -5.71875 C 67.332031 -5.71875 72.703125 -7.164062 76.921875 -10.0625 C 81.140625 -12.96875 84.242188 -16.753906 86.234375 -21.421875 C 88.234375 -26.097656 89.234375 -31.109375 89.234375 -36.453125 L 91 -36.453125 C 91 -31.734375 90.296875 -27.109375 88.890625 -22.578125 C 87.484375 -18.046875 85.285156 -13.941406 82.296875 -10.265625 C 79.304688 -6.597656 75.519531 -3.695312 70.9375 -1.5625 C 66.363281 0.5625 60.851562 1.625 54.40625 1.625 Z M 54.40625 1.625 "/></g></g></g></svg>