<svg xmlns="http://www.w3.org/2000/svg" xmlns:xlink="http://www.w3.org/1999/xlink" width="500" zoomAndPan="magnify" viewBox="0 0 375 374.999991" height="500" preserveAspectRatio="xMidYMid meet" version="1.2"><g id="4c5880dc6a"><path style=" stroke:none;fill-rule:nonzero;fill:#ffffff;fill-opacity:1;" d="M 178.277344 0 C 175.21875 0 172.414062 1.753906 171.085938 4.507812 C 169.609375 7.339844 168.265625 10.234375 167.121094 13.210938 C 166.859375 13.902344 166.671875 14.617188 166.421875 15.308594 C 162.929688 18.503906 161.523438 22.746094 162.707031 26.464844 C 162.816406 26.796875 162.945312 27.109375 163.089844 27.425781 C 163.003906 27.851562 162.964844 28.285156 162.894531 28.703125 C 161.472656 28.125 160.082031 27.664062 158.667969 27.484375 C 158.105469 27.417969 157.558594 27.375 157.023438 27.402344 C 157.023438 27.402344 157.015625 27.402344 157.003906 27.402344 C 156.460938 27.425781 155.941406 27.503906 155.4375 27.628906 C 154.441406 27.886719 153.535156 28.390625 152.871094 29.0625 C 151.832031 30.121094 151.339844 31.746094 151.542969 33.273438 C 151.714844 34.535156 152.335938 35.785156 153.238281 36.886719 C 154.140625 37.976562 155.308594 38.898438 156.613281 39.765625 C 160.566406 42.390625 165.1875 44.027344 169.960938 45.195312 C 173.183594 45.988281 176.480469 46.578125 179.777344 46.925781 C 179.691406 46.917969 179.828125 46.910156 180.160156 46.941406 C 181.109375 47.035156 182.046875 47.128906 182.972656 47.191406 C 183.5625 47.222656 184.167969 47.265625 184.808594 47.292969 C 185.34375 47.308594 185.804688 47.335938 186.171875 47.34375 C 186.066406 47.34375 186.085938 47.34375 186.203125 47.34375 C 186.203125 47.34375 186.214844 47.34375 186.222656 47.34375 C 186.714844 47.351562 187.253906 47.34375 187.867188 47.34375 C 188.480469 47.34375 189.027344 47.351562 189.511719 47.34375 C 189.671875 47.34375 189.707031 47.34375 189.578125 47.34375 C 189.980469 47.335938 190.457031 47.316406 190.996094 47.292969 C 191.597656 47.265625 192.179688 47.242188 192.691406 47.207031 C 193.125 47.183594 193.140625 47.183594 192.742188 47.207031 L 192.757812 47.207031 C 193.765625 47.140625 194.804688 47.035156 195.851562 46.925781 C 199.167969 46.566406 202.558594 45.980469 205.773438 45.195312 C 210.554688 44.027344 215.164062 42.390625 219.121094 39.765625 C 220.421875 38.898438 221.589844 37.984375 222.496094 36.886719 C 223.390625 35.796875 224.027344 34.535156 224.191406 33.273438 C 224.386719 31.746094 223.890625 30.121094 222.859375 29.0625 C 222.195312 28.390625 221.292969 27.886719 220.296875 27.628906 C 219.296875 27.367188 218.183594 27.339844 217.066406 27.476562 C 215.652344 27.65625 214.261719 28.109375 212.839844 28.695312 C 211.910156 23.410156 210.535156 18.214844 208.609375 13.203125 C 207.460938 10.226562 206.148438 7.320312 204.664062 4.5 C 203.359375 1.753906 200.566406 0 197.503906 0 C 195.722656 0 193.976562 0.597656 192.578125 1.695312 C 191.316406 2.589844 189.65625 3.128906 187.882812 3.128906 C 186.109375 3.128906 184.449219 2.589844 183.1875 1.695312 C 181.789062 0.597656 180.058594 0 178.277344 0 Z M 163.960938 47.171875 C 163.984375 47.453125 163.976562 47.726562 164.011719 48.007812 C 164.0625 48.511719 164.171875 48.996094 164.242188 49.492188 C 164.207031 49.515625 164.183594 49.542969 164.140625 49.578125 C 163.644531 49.96875 162.785156 50.667969 162.289062 51.859375 C 161.839844 52.933594 161.871094 53.941406 161.890625 54.441406 C 161.933594 55.609375 162.042969 56.796875 162.214844 57.980469 C 162.570312 60.417969 163.285156 63.136719 165.160156 65.4375 C 165.921875 66.367188 166.867188 67.046875 167.839844 67.652344 C 168.453125 69.671875 169.210938 71.726562 170.453125 73.644531 C 173.046875 77.632812 176.984375 80.539062 181.40625 81.996094 C 183.578125 82.714844 185.871094 83.105469 188.183594 83.113281 L 188.199219 83.113281 C 188.207031 83.113281 188.214844 83.113281 188.234375 83.113281 C 190.542969 83.105469 192.808594 82.722656 194.992188 81.996094 C 199.421875 80.53125 203.335938 77.625 205.925781 73.644531 C 207.273438 71.574219 208.074219 69.347656 208.6875 67.167969 C 209.359375 66.671875 210.042969 66.144531 210.621094 65.4375 C 212.488281 63.136719 213.1875 60.417969 213.554688 57.980469 C 213.734375 56.796875 213.835938 55.609375 213.871094 54.433594 C 213.886719 53.933594 213.921875 52.933594 213.46875 51.851562 C 212.964844 50.660156 212.128906 49.960938 211.636719 49.566406 C 211.464844 49.421875 211.3125 49.339844 211.152344 49.234375 C 211.175781 48.613281 211.167969 47.992188 211.203125 47.371094 C 209.683594 47.863281 208.175781 48.308594 206.640625 48.683594 C 203.265625 49.507812 199.703125 50.121094 196.234375 50.496094 C 195.152344 50.609375 194.089844 50.710938 193.003906 50.777344 L 192.953125 50.777344 L 192.953125 50.796875 C 192.9375 50.796875 192.9375 50.796875 192.921875 50.796875 C 192.339844 50.828125 191.734375 50.855469 191.140625 50.878906 C 190.601562 50.898438 190.117188 50.933594 189.65625 50.949219 L 189.605469 50.949219 C 189 50.957031 188.445312 50.949219 187.875 50.949219 C 187.304688 50.949219 186.75 50.957031 186.144531 50.949219 L 186.136719 50.949219 C 186.128906 50.949219 186.121094 50.949219 186.101562 50.949219 C 185.660156 50.941406 185.191406 50.90625 184.671875 50.878906 C 184.023438 50.855469 183.390625 50.820312 182.753906 50.777344 C 181.746094 50.710938 180.765625 50.609375 179.804688 50.515625 L 179.785156 50.515625 C 179.660156 50.515625 179.53125 50.515625 179.402344 50.496094 C 175.933594 50.121094 172.484375 49.507812 169.117188 48.683594 C 167.394531 48.265625 165.664062 47.753906 163.960938 47.171875 Z M 171.691406 80.371094 C 168.886719 81.453125 166.175781 82.824219 163.746094 84.628906 C 157.839844 89.035156 153.527344 95.285156 151.226562 102.214844 C 147.402344 113.734375 149.277344 125.71875 149.992188 136.703125 C 150.410156 143.003906 150.46875 150.027344 153.535156 156.613281 C 155.957031 161.796875 160.074219 166.074219 165.152344 168.683594 C 169.058594 170.683594 173.4375 171.628906 177.800781 171.496094 L 183.613281 171.496094 L 183.613281 196.246094 C 182.359375 196.5 181.117188 196.824219 179.933594 197.359375 C 178.515625 198 177.265625 198.902344 176.105469 199.910156 C 174.75 200.105469 173.421875 200.464844 172.191406 201.09375 C 169.464844 202.492188 167.351562 204.828125 166.117188 207.570312 C 165.121094 209.785156 164.796875 212.0625 164.617188 214.328125 L 95.652344 214.328125 C 84.289062 214.328125 75.144531 223.464844 75.144531 234.835938 L 75.144531 263.683594 C 74.625 263.863281 74.070312 263.949219 73.558594 264.171875 C 69.84375 265.773438 66.578125 268.398438 64.089844 271.59375 C 61.601562 274.789062 59.878906 278.558594 58.917969 282.496094 C 58.378906 284.691406 58.140625 286.933594 58.082031 289.203125 C 57.765625 289.40625 57.402344 289.535156 57.09375 289.773438 C 56.71875 290.070312 56.242188 290.480469 55.960938 291.152344 C 55.703125 291.765625 55.730469 292.339844 55.746094 292.753906 C 55.773438 293.652344 55.847656 294.535156 55.976562 295.433594 C 56.25 297.28125 56.769531 299.257812 58.074219 300.859375 C 58.773438 301.722656 59.667969 302.410156 60.65625 302.890625 L 60.742188 302.71875 C 61.082031 303.519531 61.328125 304.347656 61.738281 305.113281 C 62.394531 306.375 63.050781 307.644531 63.621094 308.972656 C 64.414062 310.839844 64.984375 312.816406 65.4375 314.785156 C 65.796875 316.363281 66.035156 317.984375 66.050781 319.601562 C 65.921875 321.46875 65.097656 323.214844 63.742188 324.476562 C 61.132812 326.488281 58.015625 327.757812 54.835938 328.6875 C 51.503906 329.667969 48.078125 330.332031 44.777344 331.5 C 42.765625 332.207031 40.796875 333.09375 39.015625 334.296875 C 37.246094 335.496094 35.652344 337.023438 34.542969 338.871094 C 32.691406 341.921875 32.277344 345.546875 31.941406 349.074219 C 31.535156 353.429688 31.277344 357.777344 31.109375 362.128906 C 31.089844 362.359375 31.109375 362.609375 31.109375 362.847656 C 31.109375 368.140625 35.207031 372.554688 40.5 372.9375 L 40.5 372.953125 C 54.027344 374.25 68.003906 375 82.097656 375 C 96.230469 375 110.25 374.25 123.816406 372.9375 C 123.886719 372.9375 123.953125 372.929688 124.015625 372.921875 C 129.171875 372.382812 133.097656 368.046875 133.097656 362.847656 C 133.097656 362.582031 133.097656 362.300781 133.082031 362.027344 C 132.910156 357.699219 132.671875 353.386719 132.265625 349.074219 C 131.933594 345.546875 131.496094 341.921875 129.648438 338.871094 C 128.53125 337.023438 126.945312 335.496094 125.171875 334.296875 C 123.402344 333.085938 121.433594 332.207031 119.410156 331.5 C 116.113281 330.332031 112.703125 329.667969 109.371094 328.6875 C 106.433594 327.816406 103.535156 326.660156 101.046875 324.894531 C 99.316406 323.496094 98.316406 321.402344 98.316406 319.183594 C 98.316406 318.988281 98.316406 318.785156 98.335938 318.589844 C 98.429688 317.308594 98.667969 316.03125 98.949219 314.796875 C 99.402344 312.835938 99.988281 310.859375 100.78125 308.984375 C 101.703125 306.816406 102.871094 304.796875 103.839844 302.691406 C 104.71875 302.222656 105.546875 301.636719 106.167969 300.859375 C 107.472656 299.257812 107.992188 297.28125 108.265625 295.433594 C 108.402344 294.535156 108.46875 293.652344 108.496094 292.753906 C 108.503906 292.339844 108.527344 291.777344 108.28125 291.152344 C 108 290.480469 107.523438 290.070312 107.148438 289.773438 C 106.789062 289.484375 106.347656 289.320312 105.945312 289.074219 C 105.835938 288.042969 105.722656 287.027344 105.648438 285.980469 C 105.453125 283.304688 105.621094 280.652344 105.332031 278.035156 C 105 274.996094 103.960938 271.925781 101.769531 269.847656 C 100.390625 268.535156 98.640625 267.664062 96.828125 267 C 95.019531 266.335938 93.160156 265.832031 91.328125 265.082031 C 90.203125 264.621094 89.078125 264.078125 88.167969 263.234375 C 87.859375 262.953125 87.664062 262.730469 87.382812 262.535156 C 86.972656 262.234375 86.496094 262.089844 86.003906 262.015625 C 85.507812 261.929688 85.039062 261.945312 84.503906 261.964844 C 84.101562 261.972656 83.703125 262.066406 83.300781 262.082031 L 83.300781 234.816406 C 83.300781 227.828125 88.652344 222.453125 95.652344 222.453125 L 164.464844 222.453125 C 164.480469 223.117188 164.464844 223.796875 164.496094 224.464844 C 164.371094 224.546875 164.234375 224.625 164.097656 224.726562 C 163.609375 225.121094 162.757812 225.808594 162.265625 226.996094 C 161.820312 228.058594 161.878906 229.058594 161.898438 229.558594 C 161.933594 230.726562 162.027344 231.878906 162.195312 233.054688 C 162.554688 235.464844 163.261719 238.203125 165.109375 240.476562 C 165.683594 241.175781 166.355469 241.703125 167.027344 242.191406 C 167.640625 244.355469 168.425781 246.546875 169.753906 248.597656 C 172.320312 252.554688 176.222656 255.441406 180.605469 256.890625 C 182.761719 257.609375 185.046875 257.984375 187.328125 257.992188 L 187.363281 257.992188 C 189.65625 257.984375 191.90625 257.609375 194.070312 256.890625 C 198.460938 255.441406 202.378906 252.554688 204.9375 248.597656 C 206.171875 246.691406 206.933594 244.660156 207.554688 242.660156 C 208.515625 242.0625 209.472656 241.40625 210.222656 240.476562 C 212.070312 238.191406 212.777344 235.464844 213.136719 233.054688 C 213.316406 231.878906 213.402344 230.726562 213.433594 229.558594 C 213.453125 229.058594 213.503906 228.058594 213.050781 226.996094 C 212.558594 225.808594 211.703125 225.121094 211.21875 224.726562 C 211.191406 224.710938 211.160156 224.675781 211.132812 224.660156 C 211.203125 224.15625 211.304688 223.660156 211.347656 223.160156 C 211.371094 222.929688 211.378906 222.671875 211.398438 222.441406 L 279.699219 222.441406 C 286.6875 222.441406 292.066406 227.820312 292.066406 234.808594 L 292.066406 262.355469 C 289.671875 262.679688 287.292969 263.191406 285.09375 264.136719 C 281.378906 265.738281 278.105469 268.363281 275.609375 271.558594 C 273.109375 274.753906 271.414062 278.523438 270.453125 282.460938 C 269.914062 284.660156 269.675781 286.902344 269.617188 289.167969 C 269.292969 289.378906 268.917969 289.507812 268.621094 289.746094 C 268.246094 290.046875 267.75 290.453125 267.46875 291.128906 C 267.222656 291.742188 267.238281 292.3125 267.253906 292.730469 C 267.289062 293.625 267.359375 294.511719 267.484375 295.40625 C 267.757812 297.253906 268.304688 299.234375 269.597656 300.835938 C 270.296875 301.695312 271.175781 302.386719 272.164062 302.863281 L 272.25 302.691406 C 272.589844 303.496094 272.839844 304.320312 273.246094 305.089844 C 273.902344 306.347656 274.558594 307.621094 275.128906 308.949219 C 275.933594 310.816406 276.511719 312.792969 276.964844 314.761719 C 277.328125 316.339844 277.558594 317.949219 277.578125 319.566406 C 277.449219 321.433594 276.628906 323.183594 275.265625 324.441406 C 272.660156 326.453125 269.523438 327.722656 266.34375 328.652344 C 263.011719 329.632812 259.601562 330.296875 256.304688 331.464844 C 254.292969 332.171875 252.324219 333.058594 250.542969 334.261719 C 248.769531 335.464844 247.175781 336.988281 246.066406 338.839844 C 244.21875 341.890625 243.785156 345.511719 243.453125 349.039062 C 243.042969 353.386719 242.804688 357.734375 242.632812 362.089844 C 242.617188 362.316406 242.632812 362.566406 242.632812 362.804688 C 242.632812 368.097656 246.714844 372.511719 252.007812 372.894531 L 252.007812 372.910156 C 265.558594 374.25 279.546875 375 293.632812 375 C 307.765625 375 321.800781 374.25 335.359375 372.9375 C 335.429688 372.9375 335.496094 372.929688 335.558594 372.921875 C 340.714844 372.382812 344.640625 368.046875 344.640625 362.847656 C 344.640625 362.582031 344.640625 362.300781 344.625 362.027344 C 344.453125 357.699219 344.191406 353.386719 343.789062 349.074219 C 343.457031 345.546875 343.039062 341.921875 341.191406 338.871094 C 340.074219 337.023438 338.488281 335.496094 336.714844 334.296875 C 334.933594 333.085938 332.972656 332.207031 330.953125 331.5 C 327.65625 330.332031 324.230469 329.667969 320.898438 328.6875 C 317.949219 327.816406 315.066406 326.660156 312.589844 324.894531 C 310.859375 323.496094 309.859375 321.402344 309.859375 319.183594 C 309.859375 318.988281 309.859375 318.785156 309.878906 318.589844 C 309.972656 317.308594 310.191406 316.03125 310.472656 314.796875 C 310.925781 312.835938 311.523438 310.859375 312.324219 308.984375 C 313.234375 306.816406 314.402344 304.808594 315.367188 302.710938 C 316.253906 302.242188 317.0625 301.644531 317.691406 300.859375 C 318.988281 299.257812 319.535156 297.28125 319.808594 295.433594 C 319.941406 294.535156 320.003906 293.652344 320.035156 292.753906 C 320.054688 292.339844 320.070312 291.777344 319.824219 291.152344 C 319.542969 290.480469 319.066406 290.070312 318.691406 289.773438 C 318.324219 289.484375 317.871094 289.320312 317.472656 289.074219 C 317.359375 288.042969 317.277344 287.027344 317.191406 285.980469 C 316.996094 283.304688 317.15625 280.652344 316.875 278.035156 C 316.542969 274.996094 315.503906 271.925781 313.3125 269.847656 C 311.933594 268.535156 310.183594 267.664062 308.371094 267 C 306.554688 266.335938 304.703125 265.832031 302.871094 265.082031 C 301.925781 264.699219 301.023438 264.171875 300.203125 263.53125 L 300.203125 234.816406 C 300.203125 223.449219 291.050781 214.3125 279.683594 214.3125 L 211.304688 214.3125 C 210.851562 211.40625 209.890625 208.515625 208.210938 205.984375 C 205.515625 201.945312 201.316406 199.3125 197.011719 197.660156 C 195.332031 197.011719 193.550781 196.558594 191.753906 196.226562 L 191.753906 171.476562 L 197.933594 171.476562 C 202.304688 171.621094 206.667969 170.667969 210.578125 168.664062 C 215.667969 166.058594 219.785156 161.777344 222.195312 156.597656 C 225.265625 150.015625 225.324219 142.984375 225.742188 136.6875 C 226.464844 125.703125 228.339844 113.71875 224.503906 102.195312 C 222.203125 95.265625 217.902344 89.027344 211.984375 84.613281 C 209.683594 82.902344 207.128906 81.597656 204.476562 80.53125 C 201.988281 82.671875 199.140625 84.332031 196.058594 85.355469 C 193.535156 86.191406 190.875 86.660156 188.183594 86.667969 C 185.496094 86.660156 182.8125 86.191406 180.273438 85.355469 C 177.101562 84.324219 174.203125 82.59375 171.691406 80.371094 Z M 258.828125 84.332031 C 256.433594 84.433594 254.566406 86.464844 254.667969 88.867188 C 254.683594 89.25 254.753906 89.625 254.863281 89.992188 C 254.761719 89.660156 254.761719 89.785156 254.964844 90.359375 C 256.601562 95.15625 259.984375 98.191406 262.472656 101.113281 C 265.074219 104.164062 267.085938 107.453125 267.664062 110.785156 C 261.972656 115.421875 256.609375 120.496094 251.820312 126.050781 C 246.597656 132.101562 241.96875 138.683594 238.789062 145.925781 C 235.832031 152.667969 234.214844 160.023438 234.664062 167.285156 C 234.980469 176.070312 241.3125 183.554688 249.929688 185.328125 C 259.355469 187.789062 269.625 189.171875 279.929688 189.171875 C 290.234375 189.171875 300.476562 187.78125 309.910156 185.328125 C 318.527344 183.554688 324.859375 176.070312 325.175781 167.285156 C 325.628906 160.023438 324 152.667969 321.050781 145.925781 C 317.871094 138.683594 313.246094 132.101562 308.019531 126.050781 C 303.316406 120.605469 298.097656 115.621094 292.542969 111.050781 C 292.941406 109.953125 293.429688 108.886719 294.144531 107.941406 C 295.421875 106.21875 297.339844 104.683594 299.472656 102.878906 C 301.609375 101.0625 303.964844 98.964844 305.515625 95.855469 C 306.203125 94.457031 306.648438 92.984375 306.84375 91.472656 C 307.175781 89.097656 305.515625 86.898438 303.128906 86.566406 C 303.007812 86.546875 302.898438 86.539062 302.777344 86.53125 C 300.578125 86.402344 298.304688 86.34375 295.96875 86.429688 C 288.792969 86.710938 282.144531 87.9375 275.941406 87.265625 C 271.59375 86.785156 267.066406 85.3125 261.9375 84.597656 C 261.015625 84.46875 260.140625 84.410156 259.355469 84.347656 C 259.175781 84.332031 258.996094 84.324219 258.828125 84.332031 Z M 87.007812 92.140625 C 84.496094 92.140625 82.015625 92.964844 80.019531 94.5 L 32.660156 131.265625 C 30.042969 133.296875 29.582031 137.078125 31.609375 139.6875 C 33.640625 142.296875 37.421875 142.765625 40.03125 140.734375 L 85.609375 105.347656 C 86.011719 105.078125 86.496094 104.941406 86.972656 104.933594 C 86.984375 104.933594 86.992188 104.933594 87.007812 104.933594 C 87.027344 104.933594 87.042969 104.933594 87.058594 104.933594 C 87.546875 104.941406 88.003906 105.078125 88.40625 105.347656 L 134.003906 140.734375 C 136.621094 142.765625 140.394531 142.304688 142.421875 139.6875 C 144.453125 137.070312 143.972656 133.296875 141.359375 131.265625 L 125.378906 118.867188 L 125.378906 99.65625 C 127.269531 99.621094 128.785156 98.105469 128.785156 96.214844 C 128.785156 94.285156 127.226562 92.734375 125.308594 92.734375 L 112.261719 92.734375 C 110.335938 92.734375 108.785156 94.296875 108.785156 96.214844 C 108.785156 98.113281 110.308594 99.621094 112.191406 99.65625 L 112.191406 108.628906 L 93.996094 94.5 C 92.003906 92.964844 89.523438 92.140625 87.007812 92.140625 Z M 87.007812 111.777344 L 49.738281 140.71875 L 49.738281 178.253906 C 49.738281 182.574219 53.207031 186.058594 57.527344 186.058594 L 70.628906 186.058594 C 72.554688 186.058594 74.308594 184.390625 74.308594 182.464844 L 74.308594 158.972656 C 74.308594 154.652344 77.796875 151.183594 82.117188 151.183594 L 91.902344 151.183594 C 96.222656 151.183594 99.707031 154.652344 99.707031 158.972656 L 99.707031 182.464844 C 99.707031 184.390625 101.480469 186.058594 103.40625 186.058594 L 116.488281 186.058594 C 120.808594 186.058594 124.296875 182.574219 124.296875 178.253906 L 124.296875 140.71875 Z M 281.445312 124.816406 C 282.628906 124.78125 283.628906 125.710938 283.660156 126.902344 C 283.660156 126.921875 283.660156 126.9375 283.660156 126.964844 L 283.660156 130.609375 C 285.296875 131.011719 286.890625 131.660156 288.308594 132.589844 C 290.839844 134.25 292.816406 136.644531 293.984375 139.449219 C 294.664062 141.085938 293.878906 142.96875 292.253906 143.652344 C 292.234375 143.652344 292.226562 143.660156 292.21875 143.660156 L 291.203125 144.078125 C 289.578125 144.742188 287.703125 143.957031 287.027344 142.328125 C 286.464844 140.957031 285.417969 139.703125 284.164062 138.886719 C 282.800781 137.992188 281.054688 137.539062 279.484375 137.703125 C 277.925781 137.863281 276.375 138.648438 275.359375 139.765625 C 274.609375 140.597656 274.117188 141.671875 274.03125 142.609375 C 273.945312 143.515625 274.246094 144.527344 274.714844 145.089844 C 275.199219 145.679688 276.253906 146.316406 277.679688 146.820312 C 278.640625 147.171875 279.640625 147.441406 280.644531 147.640625 C 282.027344 147.902344 283.371094 148.285156 284.691406 148.753906 C 286.703125 149.472656 289.109375 150.5625 290.933594 152.785156 C 292.832031 155.078125 293.582031 157.976562 293.308594 160.78125 C 293.046875 163.542969 291.808594 166.023438 290.0625 167.957031 C 288.332031 169.875 286.097656 171.238281 283.671875 171.953125 L 283.671875 174.589844 C 283.671875 175.492188 283.089844 176.300781 282.238281 176.597656 L 279.027344 177.734375 C 277.902344 178.125 276.683594 177.535156 276.28125 176.410156 C 276.203125 176.191406 276.160156 175.953125 276.160156 175.714844 L 276.160156 172.097656 C 274.515625 171.699219 272.949219 171.015625 271.535156 170.089844 C 269.003906 168.425781 267.007812 166.03125 265.839844 163.226562 C 265.160156 161.589844 265.941406 159.707031 267.570312 159.027344 C 267.589844 159.027344 267.597656 159.015625 267.605469 159.015625 L 268.636719 158.597656 C 270.265625 157.933594 272.140625 158.71875 272.8125 160.347656 C 273.375 161.71875 274.414062 162.972656 275.660156 163.789062 C 277.023438 164.683594 278.769531 165.136719 280.339844 164.972656 C 281.898438 164.8125 283.449219 164.027344 284.464844 162.910156 C 285.214844 162.078125 285.714844 161.003906 285.808594 160.066406 C 285.894531 159.160156 285.597656 158.148438 285.128906 157.585938 C 284.640625 156.996094 283.558594 156.359375 282.144531 155.855469 C 281.183594 155.503906 280.191406 155.234375 279.195312 155.035156 C 277.824219 154.773438 276.460938 154.398438 275.128906 153.921875 C 273.109375 153.195312 270.714844 152.113281 268.890625 149.890625 C 266.992188 147.597656 266.257812 144.699219 266.53125 141.894531 C 266.796875 139.132812 268.015625 136.652344 269.761719 134.71875 C 271.492188 132.800781 273.722656 131.4375 276.152344 130.722656 L 276.152344 128.089844 C 276.152344 127.183594 276.734375 126.375 277.585938 126.078125 L 280.796875 124.941406 C 281.011719 124.867188 281.234375 124.824219 281.445312 124.816406 Z M 169.621094 258.722656 C 166.234375 258.929688 162.886719 259.175781 159.683594 259.492188 C 152.421875 260.105469 146.242188 265.003906 143.964844 271.925781 C 143.863281 272.222656 143.769531 272.539062 143.683594 272.839844 C 142.953125 275.164062 142.328125 277.542969 141.816406 279.964844 C 141.484375 281.503906 141.203125 283.046875 140.949219 284.609375 C 140.703125 285.808594 140.652344 287.054688 140.652344 288.273438 C 140.652344 296.949219 146.785156 304.464844 155.300781 306.152344 C 164.632812 308.429688 176.113281 309.765625 187.679688 309.765625 L 187.714844 309.765625 C 199.269531 309.765625 210.75 308.429688 220.089844 306.152344 C 228.597656 304.472656 234.742188 296.949219 234.742188 288.273438 C 234.742188 287.054688 234.691406 285.808594 234.441406 284.609375 C 234.195312 283.046875 233.90625 281.503906 233.574219 279.964844 C 233.054688 277.542969 232.421875 275.164062 231.691406 272.839844 C 231.605469 272.539062 231.519531 272.222656 231.425781 271.925781 C 229.140625 265.003906 222.953125 260.105469 215.691406 259.492188 C 212.480469 259.175781 209.148438 258.9375 205.773438 258.722656 C 204.640625 261.265625 203.328125 263.71875 201.828125 266.0625 C 200.035156 268.859375 198.007812 271.492188 195.765625 273.9375 C 194.734375 275.054688 193.644531 276.121094 192.535156 277.152344 L 190.789062 268.089844 L 192.785156 265.78125 C 193.816406 264.578125 193.679688 262.765625 192.484375 261.734375 C 191.957031 261.28125 191.292969 261.035156 190.601562 261.035156 L 184.773438 261.035156 C 183.1875 261.035156 181.902344 262.3125 181.902344 263.898438 C 181.902344 264.589844 182.148438 265.253906 182.597656 265.78125 L 184.59375 268.089844 L 182.847656 277.160156 C 181.738281 276.121094 180.648438 275.0625 179.617188 273.929688 C 177.375 271.484375 175.328125 268.847656 173.539062 266.054688 C 172.046875 263.71875 170.761719 261.265625 169.621094 258.722656 Z M 169.621094 258.722656 "/></g></svg>