<svg xmlns="http://www.w3.org/2000/svg" xmlns:xlink="http://www.w3.org/1999/xlink" width="500" zoomAndPan="magnify" viewBox="0 0 375 374.999991" height="500" preserveAspectRatio="xMidYMid meet" version="1.2"><defs><clipPath id="2193f14a8f"><path d="M 0 102.1875 L 375 102.1875 L 375 273.1875 L 0 273.1875 Z M 0 102.1875 "/></clipPath></defs><g id="cd897e1f25"><g clip-rule="nonzero" clip-path="url(#2193f14a8f)"><path style=" stroke:none;fill-rule:nonzero;fill:#ffffff;fill-opacity:1;" d="M 311.132812 102.769531 C 308.296875 103.285156 305.894531 105.433594 305.234375 108.417969 C 305.148438 108.757812 305.082031 109.097656 305.066406 109.445312 C 304.4375 114.714844 303.503906 119.964844 302.214844 125.125 C 301.738281 127.007812 301.171875 128.867188 300.59375 130.722656 C 297.242188 134.296875 293.730469 137.722656 289.988281 140.878906 C 288.15625 142.421875 286.253906 143.875 284.320312 145.300781 C 284.042969 145.488281 283.777344 145.699219 283.523438 145.925781 C 283.371094 146.054688 283.328125 146.242188 283.191406 146.378906 C 282.914062 146.640625 282.546875 146.777344 282.285156 147.074219 L 272.410156 158.40625 C 268.949219 162.371094 269.363281 168.335938 273.316406 171.796875 L 297.167969 192.625 C 297.445312 192.90625 297.792969 193.140625 298.089844 193.40625 C 301.152344 196.085938 304.953125 197.332031 308.730469 197.351562 C 314.429688 199.402344 320.074219 201.609375 325.664062 203.925781 C 320.660156 207.667969 315.585938 211.296875 310.417969 214.808594 C 310.214844 214.929688 309.996094 215.074219 309.808594 215.210938 C 306.195312 217.90625 305.464844 223.03125 308.171875 226.644531 C 310.875 230.261719 315.992188 230.988281 319.605469 228.285156 C 319.691406 228.234375 319.777344 228.15625 319.851562 228.105469 C 329 221.894531 337.898438 215.328125 346.519531 208.40625 C 350.03125 205.691406 350.726562 200.617188 348.078125 197.054688 C 347.882812 196.789062 347.648438 196.585938 347.433594 196.359375 C 347.324219 196.238281 347.222656 196.121094 347.105469 196.007812 C 346.910156 195.832031 346.6875 195.660156 346.476562 195.492188 C 346.246094 195.3125 346.007812 195.117188 345.746094 194.957031 C 345.628906 194.882812 345.507812 194.820312 345.382812 194.761719 C 345.09375 194.601562 344.804688 194.429688 344.492188 194.296875 C 344.398438 194.261719 344.304688 194.210938 344.210938 194.175781 C 340.214844 192.371094 336.175781 190.671875 332.128906 188.992188 L 333.011719 187.398438 C 336.992188 189.050781 340.953125 190.722656 344.871094 192.503906 C 345.050781 192.582031 345.152344 192.625 345.152344 192.625 L 345.167969 192.640625 C 345.671875 192.835938 346 193.066406 346.230469 193.183594 L 346.246094 193.203125 C 346.316406 193.234375 346.441406 193.285156 346.664062 193.414062 C 346.679688 193.414062 346.695312 193.429688 346.714844 193.429688 C 347.078125 193.660156 347.359375 193.878906 347.597656 194.058594 L 347.613281 194.074219 C 347.808594 194.226562 348.070312 194.414062 348.359375 194.6875 L 348.375 194.703125 C 348.570312 194.882812 348.691406 195.035156 348.773438 195.117188 L 348.792969 195.117188 C 348.910156 195.238281 349.113281 195.492188 349.328125 195.730469 C 349.421875 195.796875 349.503906 195.882812 349.574219 195.957031 C 351.90625 199.089844 352.058594 203.1875 350.386719 206.460938 C 353.398438 210.261719 356.351562 214.125 359.234375 218.042969 C 359.371094 218.238281 359.515625 218.441406 359.667969 218.621094 C 362.503906 222.132812 367.636719 222.667969 371.15625 219.832031 C 374.675781 217 375.203125 211.867188 372.371094 208.34375 C 372.320312 208.261719 372.234375 208.183594 372.175781 208.117188 C 365.632812 199.214844 358.726562 190.546875 351.480469 182.199219 C 350.003906 180.433594 347.953125 179.472656 345.8125 179.3125 C 345.804688 179.3125 345.789062 179.3125 345.78125 179.3125 C 345.6875 179.304688 345.601562 179.3125 345.515625 179.296875 C 339.332031 178.5 333.140625 177.863281 326.929688 177.34375 L 300.679688 151.09375 C 304.726562 147.609375 308.578125 143.910156 312.191406 139.988281 C 312.34375 139.84375 312.402344 139.65625 312.539062 139.503906 C 312.851562 139.15625 313.097656 138.785156 313.355469 138.375 C 313.617188 137.9375 313.871094 137.511719 314.03125 137.035156 C 314.082031 136.875 314.203125 136.765625 314.246094 136.605469 C 315.09375 133.992188 315.890625 131.34375 316.5625 128.664062 C 317.984375 122.996094 319.03125 117.242188 319.742188 111.449219 C 320.539062 107.511719 318.003906 103.660156 314.09375 102.785156 C 313.058594 102.589844 312.082031 102.597656 311.132812 102.769531 Z M 258.257812 116.207031 C 255.96875 116.359375 253.753906 117.125 251.777344 118.160156 C 250.15625 119.015625 248.59375 120.066406 247.289062 121.425781 L 247.269531 121.441406 C 245.957031 122.800781 244.886719 124.472656 244.320312 126.328125 C 244.019531 127.289062 243.929688 128.273438 243.917969 129.265625 C 243.4375 130.003906 243.039062 130.808594 242.824219 131.664062 C 242.332031 133.582031 242.597656 135.601562 243.386719 137.367188 C 244.308594 139.421875 245.878906 140.957031 247.382812 142.320312 C 248.527344 143.367188 249.6875 144.367188 250.894531 145.332031 C 250.875 145.433594 250.859375 145.511719 250.859375 145.628906 C 250.84375 146.03125 250.808594 146.742188 251.171875 147.488281 C 251.503906 148.160156 252.003906 148.558594 252.25 148.761719 C 252.828125 149.246094 253.4375 149.6875 254.074219 150.101562 C 255.398438 150.957031 257.019531 151.765625 258.910156 151.839844 C 259.488281 151.867188 260.039062 151.773438 260.566406 151.664062 C 261.871094 152.28125 263.253906 152.84375 264.824219 153.070312 C 267.828125 153.511719 270.90625 152.84375 273.476562 151.332031 C 274.742188 150.59375 275.898438 149.652344 276.871094 148.550781 L 276.871094 148.53125 C 277.832031 147.414062 278.621094 146.15625 279.1875 144.808594 C 280.351562 142.058594 280.628906 138.953125 279.800781 136.027344 C 279.402344 134.617188 278.753906 133.378906 278.042969 132.234375 C 278.160156 131.511719 278.238281 130.773438 278.109375 130.011719 C 277.796875 128.136719 276.777344 126.644531 275.761719 125.4375 C 275.261719 124.851562 274.734375 124.320312 274.183594 123.800781 C 273.953125 123.582031 273.503906 123.121094 272.792969 122.894531 C 272.011719 122.628906 271.316406 122.742188 270.917969 122.808594 C 270.898438 122.808594 270.867188 122.824219 270.847656 122.824219 C 270.636719 122.578125 270.433594 122.324219 270.21875 122.078125 C 268.980469 120.703125 267.582031 119.421875 265.976562 118.378906 C 264.367188 117.335938 262.515625 116.554688 260.539062 116.292969 C 259.785156 116.183594 259.019531 116.15625 258.257812 116.207031 Z M 196.59375 126.625 C 196.019531 126.5 195.464844 126.644531 195.035156 126.941406 C 194.566406 127.253906 194.261719 127.703125 194.167969 128.261719 C 194.167969 128.261719 194.167969 128.273438 194.167969 128.28125 L 189.144531 160.324219 C 189.042969 160.886719 189.179688 161.386719 189.476562 161.820312 C 189.789062 162.277344 190.222656 162.566406 190.75 162.667969 C 191.214844 162.761719 191.785156 162.675781 192.257812 162.351562 C 192.667969 162.074219 192.980469 161.714844 193.109375 161.097656 L 200.117188 129.476562 C 200.234375 128.941406 200.148438 128.441406 199.851562 127.964844 C 199.554688 127.492188 199.140625 127.195312 198.597656 127.074219 Z M 222.691406 137.316406 C 222.132812 137.390625 221.699219 137.648438 221.367188 138.078125 L 201.703125 163.796875 C 201.304688 164.296875 201.234375 164.78125 201.285156 165.269531 C 201.347656 165.839844 201.644531 166.316406 202.015625 166.613281 C 202.433594 166.953125 202.941406 167.121094 203.492188 167.0625 C 204.011719 167.011719 204.46875 166.773438 204.832031 166.332031 L 226.113281 141.855469 L 226.128906 141.855469 C 226.5 141.421875 226.65625 140.886719 226.59375 140.328125 C 226.542969 139.808594 226.304688 139.292969 225.832031 138.9375 L 224.195312 137.699219 C 223.734375 137.359375 223.253906 137.238281 222.691406 137.316406 Z M 76.390625 158.078125 C 65.082031 158.042969 53.78125 158.28125 42.488281 158.738281 C 38.070312 158.738281 33.511719 160.648438 30.558594 163.921875 C 27.054688 167.402344 23.671875 171 20.421875 174.707031 C 14.03125 181.984375 7.890625 190.164062 6.304688 199.808594 C 5.785156 202.949219 5.769531 206.121094 5.066406 209.144531 C 4.175781 212.925781 2.179688 216.457031 1.324219 220.375 C 0.21875 225.382812 1.128906 230.753906 3.546875 235.257812 C 5.40625 238.710938 8.136719 241.6875 11.453125 243.792969 C 17.035156 247.339844 23.796875 248.203125 30.296875 248.816406 C 30.738281 248.855469 31.179688 248.898438 31.621094 248.933594 C 31.613281 248.703125 31.613281 248.484375 31.601562 248.253906 C 31.601562 231.890625 44.863281 218.628906 61.230469 218.628906 C 77.597656 218.628906 90.855469 231.890625 90.855469 248.253906 C 90.855469 249.425781 90.78125 250.589844 90.644531 251.75 C 99.222656 252.082031 107.800781 252.445312 116.378906 252.878906 L 212.851562 252.878906 C 212.613281 251.351562 212.484375 249.808594 212.484375 248.253906 C 212.484375 231.890625 225.746094 218.628906 242.113281 218.628906 C 258.476562 218.628906 271.738281 231.890625 271.738281 248.253906 C 271.738281 249.808594 271.613281 251.351562 271.375 252.878906 L 280.054688 252.878906 C 280.308594 252.886719 280.5625 252.878906 280.816406 252.878906 C 282.363281 252.878906 283.90625 252.710938 285.40625 252.335938 C 286.875 252.023438 288.335938 251.605469 289.734375 251.046875 C 291.703125 250.25 293.578125 249.101562 295.035156 247.515625 C 296.011719 246.457031 296.792969 245.210938 297.191406 243.800781 C 297.597656 242.402344 297.597656 240.847656 297.074219 239.472656 C 296.625 238.277344 295.835938 237.277344 295.003906 236.378906 C 294.171875 235.476562 293.304688 234.636719 292.636719 233.679688 C 291.625 232.21875 291.039062 230.472656 290.777344 228.691406 C 290.523438 226.902344 290.566406 225.078125 290.691406 223.253906 C 290.957031 219.605469 291.574219 215.820312 290.691406 212.164062 C 289.878906 208.769531 287.800781 205.765625 285.179688 203.5 C 282.554688 201.226562 279.410156 199.65625 276.160156 198.496094 C 269.558594 196.144531 262.527344 195.492188 255.578125 194.949219 C 243.5625 194 231.542969 193.292969 219.503906 192.8125 C 216.355469 192.648438 213.351562 191.292969 211.152344 189.035156 C 202.101562 178.414062 190.230469 170.183594 177.023438 165.636719 C 172.125 163.957031 167.070312 162.761719 161.980469 161.878906 C 148.285156 159.503906 134.328125 159.339844 120.464844 159.011719 C 107.679688 158.703125 94.886719 158.261719 82.09375 158.128906 C 80.191406 158.109375 78.308594 158.101562 76.410156 158.09375 L 76.410156 158.078125 Z M 240.027344 158.730469 C 239.492188 158.558594 238.964844 158.613281 238.480469 158.867188 L 209.796875 173.882812 C 209.226562 174.164062 208.964844 174.5625 208.804688 175.027344 C 208.625 175.5625 208.667969 176.140625 208.886719 176.574219 C 209.117188 177.054688 209.523438 177.402344 210.050781 177.582031 C 210.550781 177.75 211.058594 177.742188 211.578125 177.496094 L 241.1875 164.304688 C 241.1875 164.304688 241.203125 164.296875 241.203125 164.289062 C 241.730469 164.050781 242.085938 163.640625 242.265625 163.109375 C 242.433594 162.617188 242.445312 162.054688 242.164062 161.53125 L 241.203125 159.707031 C 240.941406 159.207031 240.558594 158.890625 240.027344 158.730469 Z M 74.839844 165.882812 C 77.496094 165.875 80.140625 165.890625 82.796875 165.917969 C 84.65625 165.933594 86.496094 166.019531 88.34375 166.050781 L 81.8125 198.582031 L 53.179688 197.503906 C 51.414062 197.503906 49.53125 197.003906 48.046875 196.058594 C 47.496094 195.746094 46.933594 195.414062 46.390625 195.066406 C 42.515625 192.648438 38.890625 189.839844 35.558594 186.738281 C 34.460938 185.71875 34.402344 184.011719 35.40625 182.910156 C 39.605469 178.292969 44.421875 174.246094 49.726562 170.949219 C 52.023438 169.511719 54.433594 168.234375 56.886719 167.085938 C 58.21875 166.398438 59.796875 166.027344 61.296875 166.027344 C 65.792969 165.933594 70.316406 165.890625 74.839844 165.882812 Z M 95.769531 166.214844 C 103.550781 166.390625 111.328125 166.578125 119.082031 166.757812 C 126.582031 166.933594 134.144531 167.113281 141.71875 167.621094 L 145.417969 200.964844 L 89.246094 198.859375 Z M 149.152344 168.222656 C 152.308594 168.554688 155.457031 168.953125 158.59375 169.496094 C 163.488281 170.34375 168.359375 171.507812 173.128906 173.144531 C 187.203125 177.980469 199.707031 187.085938 208.753906 198.859375 C 210.160156 200.703125 208.796875 203.355469 206.480469 203.273438 L 152.800781 201.246094 Z M 97.355469 208.386719 L 106.953125 208.386719 C 108.164062 208.386719 109.140625 209.363281 109.140625 210.578125 C 109.140625 211.789062 108.164062 212.78125 106.953125 212.78125 L 97.355469 212.78125 C 96.140625 212.78125 95.167969 211.789062 95.167969 210.578125 C 95.167969 209.363281 96.140625 208.386719 97.355469 208.386719 Z M 159.730469 208.386719 L 169.328125 208.386719 C 170.539062 208.386719 171.515625 209.363281 171.515625 210.578125 C 171.515625 211.789062 170.53125 212.78125 169.320312 212.78125 L 159.722656 212.78125 C 158.507812 212.78125 157.535156 211.789062 157.535156 210.578125 C 157.535156 209.363281 158.507812 208.386719 159.730469 208.386719 Z M 277.175781 209.269531 C 277.457031 209.261719 277.730469 209.261719 278.007812 209.269531 C 278.839844 209.296875 279.644531 209.40625 280.445312 209.5 C 282.199219 209.726562 283.972656 209.984375 285.730469 210.230469 C 286.113281 210.28125 286.339844 210.679688 286.214844 211.042969 C 286.019531 211.5625 285.867188 212.078125 285.761719 212.621094 C 285.585938 213.648438 285.621094 214.707031 285.730469 215.769531 C 285.8125 216.53125 285.941406 217.28125 286.113281 218.027344 C 286.128906 218.085938 286.136719 218.179688 286.144531 218.238281 C 286.265625 219.085938 285.679688 219.859375 284.839844 219.976562 C 284.390625 220.0625 283.929688 220.15625 283.480469 220.242188 C 280.5625 220.734375 277.628906 220.996094 274.667969 220.988281 C 272.875 220.988281 271.101562 220.867188 269.328125 220.671875 C 269 220.640625 268.769531 220.324219 268.796875 219.996094 C 269.007812 218.273438 269.421875 216.582031 270.050781 214.953125 C 270.535156 213.722656 271.128906 212.519531 272.054688 211.527344 C 272.960938 210.550781 274.140625 209.855469 275.429688 209.523438 C 275.640625 209.457031 275.84375 209.421875 276.058594 209.390625 L 276.058594 209.371094 C 276.429688 209.304688 276.8125 209.289062 277.175781 209.269531 Z M 61.179688 223.304688 C 47.410156 223.328125 36.269531 234.484375 36.269531 248.253906 C 36.269531 262.035156 47.425781 273.207031 61.203125 273.207031 C 74.984375 273.207031 86.15625 262.042969 86.15625 248.273438 C 86.15625 248.261719 86.15625 248.253906 86.15625 248.253906 C 86.15625 234.484375 75.015625 223.328125 61.246094 223.304688 C 61.230469 223.304688 61.214844 223.304688 61.195312 223.304688 C 61.203125 223.304688 61.195312 223.304688 61.179688 223.304688 Z M 242.054688 223.304688 C 228.285156 223.328125 217.144531 234.484375 217.144531 248.253906 C 217.144531 262.035156 228.308594 273.207031 242.078125 273.207031 C 242.085938 273.207031 242.09375 273.207031 242.09375 273.207031 C 255.875 273.207031 267.03125 262.035156 267.03125 248.253906 C 267.03125 234.503906 255.890625 223.328125 242.136719 223.304688 C 242.121094 223.304688 242.105469 223.304688 242.085938 223.304688 C 242.070312 223.304688 242.070312 223.304688 242.054688 223.304688 Z M 61.214844 231.371094 C 61.214844 231.371094 61.222656 231.371094 61.222656 231.371094 C 62.757812 231.371094 64.277344 231.574219 65.753906 231.984375 L 64.648438 236.460938 L 61.59375 241.875 L 58.640625 231.566406 C 59.5 231.441406 60.355469 231.371094 61.214844 231.371094 Z M 242.105469 231.371094 L 242.121094 231.371094 C 243.648438 231.371094 245.167969 231.574219 246.644531 231.984375 L 245.53125 236.453125 L 242.46875 241.875 L 239.535156 231.566406 C 240.375 231.441406 241.238281 231.371094 242.105469 231.371094 Z M 248.714844 232.710938 C 251.929688 234.078125 254.625 236.410156 256.46875 239.371094 L 254.746094 241.859375 L 246.039062 246.285156 C 245.886719 246.117188 245.726562 245.957031 245.558594 245.804688 C 246.839844 242.324219 247.628906 238.667969 248.289062 235.027344 C 248.441406 234.257812 248.570312 233.492188 248.714844 232.710938 Z M 67.839844 232.730469 C 71.039062 234.085938 73.746094 236.417969 75.578125 239.371094 L 73.855469 241.859375 L 65.160156 246.285156 C 65.003906 246.117188 64.84375 245.957031 64.675781 245.804688 C 65.957031 242.324219 66.746094 238.667969 67.40625 235.027344 C 67.550781 234.265625 67.703125 233.5 67.839844 232.730469 Z M 52.332031 233.890625 L 54.816406 235.613281 L 59.238281 244.308594 C 59.074219 244.460938 58.914062 244.605469 58.769531 244.777344 C 55.28125 243.496094 51.617188 242.722656 47.988281 242.0625 C 47.214844 241.917969 46.441406 241.789062 45.671875 241.644531 C 47.035156 238.429688 49.371094 235.734375 52.332031 233.890625 Z M 233.222656 233.890625 L 235.707031 235.613281 L 240.128906 244.308594 C 239.957031 244.460938 239.796875 244.625 239.644531 244.792969 C 236.164062 243.511719 232.515625 242.722656 228.867188 242.0625 C 228.089844 241.917969 227.324219 241.789062 226.550781 241.644531 C 227.925781 238.429688 230.25 235.734375 233.222656 233.890625 Z M 44.941406 243.714844 L 49.410156 244.828125 L 54.832031 247.890625 L 44.523438 250.824219 C 44.390625 249.976562 44.328125 249.121094 44.328125 248.253906 C 44.328125 246.726562 44.535156 245.191406 44.941406 243.714844 Z M 225.832031 243.714844 L 230.300781 244.828125 L 235.722656 247.890625 L 225.414062 250.824219 C 225.28125 249.976562 225.210938 249.121094 225.203125 248.253906 C 225.195312 246.726562 225.414062 245.191406 225.832031 243.714844 Z M 77.902344 245.691406 C 78.039062 246.542969 78.105469 247.398438 78.113281 248.261719 C 78.113281 249.800781 77.902344 251.328125 77.484375 252.800781 L 73.015625 251.691406 L 67.59375 248.628906 Z M 258.785156 245.691406 C 258.917969 246.542969 258.980469 247.398438 258.980469 248.261719 C 258.980469 249.800781 258.785156 251.328125 258.367188 252.800781 L 253.898438 251.691406 L 248.476562 248.628906 Z M 57.269531 250.230469 C 57.421875 250.402344 57.582031 250.5625 57.75 250.714844 C 56.46875 254.195312 55.679688 257.851562 55.019531 261.492188 C 54.875 262.269531 54.75 263.035156 54.605469 263.804688 C 51.398438 262.441406 48.683594 260.105469 46.847656 257.144531 L 48.570312 254.660156 Z M 238.175781 250.25 C 238.328125 250.417969 238.472656 250.5625 238.640625 250.714844 C 237.363281 254.195312 236.574219 257.851562 235.910156 261.492188 C 235.765625 262.261719 235.621094 263.027344 235.476562 263.789062 C 232.28125 262.433594 229.582031 260.097656 227.742188 257.144531 L 229.460938 254.660156 Z M 63.664062 251.726562 C 67.152344 253.007812 70.792969 253.796875 74.441406 254.457031 C 75.210938 254.601562 75.984375 254.726562 76.757812 254.871094 C 75.390625 258.089844 73.058594 260.785156 70.097656 262.628906 L 67.609375 260.90625 L 63.191406 252.207031 C 63.359375 252.054688 63.519531 251.886719 63.664062 251.726562 Z M 244.554688 251.726562 C 248.035156 253.007812 251.683594 253.796875 255.332031 254.457031 C 256.113281 254.601562 256.875 254.726562 257.648438 254.871094 C 256.28125 258.089844 253.949219 260.785156 250.988281 262.628906 L 248.5 260.90625 L 244.082031 252.207031 C 244.242188 252.054688 244.402344 251.886719 244.554688 251.726562 Z M 60.847656 254.636719 L 63.785156 264.945312 C 62.933594 265.078125 62.078125 265.136719 61.214844 265.136719 C 59.675781 265.136719 58.152344 264.945312 56.675781 264.527344 L 57.785156 260.054688 Z M 241.722656 254.636719 L 244.675781 264.945312 C 243.828125 265.078125 242.96875 265.136719 242.105469 265.136719 C 240.570312 265.136719 239.042969 264.945312 237.566406 264.527344 L 238.675781 260.054688 Z M 241.722656 254.636719 "/></g></g></svg>