<svg xmlns="http://www.w3.org/2000/svg" xmlns:xlink="http://www.w3.org/1999/xlink" width="500" zoomAndPan="magnify" viewBox="0 0 375 374.999991" height="500" preserveAspectRatio="xMidYMid meet" version="1.2"><g id="6998163cc4"><path style=" stroke:none;fill-rule:nonzero;fill:#ffffff;fill-opacity:1;" d="M 161.679688 363.71875 L 161.679688 371.882812 C 161.679688 372.941406 161.800781 373.972656 162.027344 374.960938 L 21.398438 374.960938 C 9.59375 374.960938 -0.0351562 365.332031 -0.0351562 353.527344 L -0.0351562 58.066406 C -0.0351562 46.261719 9.59375 36.632812 21.398438 36.632812 L 66.320312 36.632812 L 66.320312 58.222656 L 21.621094 58.222656 L 21.621094 353.34375 C 21.621094 353.34375 164.296875 353.34375 164.296875 353.34375 C 162.628906 356.433594 161.679688 359.96875 161.679688 363.71875 Z M 261.960938 238.179688 C 264.082031 235.476562 266.078125 232.671875 267.9375 229.769531 C 267.683594 225.71875 269.113281 221.589844 272.179688 218.519531 L 278.8125 211.886719 C 280.253906 210.445312 281.878906 209.304688 283.617188 208.457031 L 283.617188 58.066406 C 283.617188 46.261719 273.988281 36.632812 262.183594 36.632812 L 217.261719 36.632812 L 217.261719 58.222656 L 261.964844 58.222656 L 261.964844 238.179688 Z M 77.03125 58.339844 L 77.03125 36.589844 C 77.03125 32.78125 78.558594 29.503906 81.476562 27.050781 C 84.394531 24.601562 87.886719 23.660156 91.640625 24.316406 L 116.605469 28.683594 L 116.605469 25.222656 C 116.605469 11.3125 127.882812 0.0390625 141.792969 0.0390625 C 155.699219 0.0390625 166.976562 11.3125 166.976562 25.222656 L 166.976562 28.683594 L 191.941406 24.316406 C 195.695312 23.660156 199.1875 24.601562 202.105469 27.050781 C 205.023438 29.503906 206.550781 32.78125 206.550781 36.589844 L 206.550781 58.339844 C 206.550781 61.289062 204.144531 63.695312 201.195312 63.695312 L 82.390625 63.695312 C 79.4375 63.695312 77.03125 61.289062 77.03125 58.339844 Z M 133.992188 24.335938 C 133.992188 28.632812 137.496094 32.136719 141.792969 32.136719 C 146.085938 32.136719 149.589844 28.632812 149.589844 24.335938 C 149.589844 20.042969 146.085938 16.539062 141.792969 16.539062 C 137.496094 16.539062 133.992188 20.042969 133.992188 24.335938 Z M 88.675781 295.675781 C 88.675781 298.636719 91.074219 301.03125 94.03125 301.03125 L 188.070312 301.03125 C 191.03125 301.03125 193.425781 298.636719 193.425781 295.675781 C 193.425781 292.71875 191.03125 290.320312 188.070312 290.320312 L 94.03125 290.320312 C 91.074219 290.320312 88.675781 292.71875 88.675781 295.675781 Z M 177.359375 323.523438 C 177.359375 320.566406 174.960938 318.167969 172.003906 318.167969 L 94.03125 318.167969 C 91.074219 318.167969 88.675781 320.566406 88.675781 323.523438 C 88.675781 326.484375 91.074219 328.878906 94.03125 328.878906 L 172.003906 328.878906 C 174.960938 328.878906 177.359375 326.484375 177.359375 323.523438 Z M 62.082031 284.972656 C 56.167969 284.972656 51.375 289.765625 51.375 295.675781 C 51.375 301.589844 56.167969 306.382812 62.082031 306.382812 C 67.992188 306.382812 72.785156 301.589844 72.785156 295.675781 C 72.785156 289.765625 67.992188 284.972656 62.082031 284.972656 Z M 62.082031 312.820312 C 56.167969 312.820312 51.375 317.613281 51.375 323.523438 C 51.375 329.4375 56.167969 334.230469 62.082031 334.230469 C 67.992188 334.230469 72.785156 329.4375 72.785156 323.523438 C 72.785156 317.613281 67.992188 312.820312 62.082031 312.820312 Z M 179.117188 138.011719 C 179.117188 137.589844 179.109375 137.171875 179.09375 136.753906 L 104.488281 136.753906 C 104.472656 137.171875 104.46875 137.589844 104.46875 138.011719 C 104.46875 158.625 121.175781 175.335938 141.792969 175.335938 C 162.40625 175.335938 179.117188 158.628906 179.117188 138.011719 Z M 121.089844 185.066406 L 121.089844 223.628906 L 162.492188 223.628906 L 162.492188 185.066406 C 155.898438 183.265625 148.957031 182.300781 141.789062 182.300781 C 134.625 182.300781 127.683594 183.265625 121.089844 185.066406 Z M 96 266.519531 L 187.578125 266.519531 L 187.578125 197.066406 C 183.117188 193.847656 178.304688 191.089844 173.207031 188.855469 L 173.207031 225.421875 C 173.207031 230.34375 169.199219 234.339844 164.285156 234.339844 L 119.300781 234.339844 C 114.378906 234.339844 110.375 230.34375 110.375 225.421875 L 110.375 188.855469 C 105.277344 191.089844 100.460938 193.851562 96 197.070312 Z M 219.835938 253.550781 C 218.191406 235.300781 210.289062 218.851562 198.292969 206.375 L 198.292969 266.519531 L 219.835938 266.519531 Z M 85.289062 206.375 C 73.292969 218.851562 65.390625 235.300781 63.746094 253.550781 L 63.746094 266.519531 L 85.289062 266.519531 Z M 98.648438 117.378906 L 96.875 117.378906 C 93.917969 117.378906 91.519531 119.777344 91.519531 122.734375 C 91.519531 125.691406 93.917969 128.089844 96.875 128.089844 L 186.707031 128.089844 C 189.664062 128.089844 192.0625 125.691406 192.0625 122.734375 C 192.0625 119.777344 189.664062 117.378906 186.707031 117.378906 L 184.9375 117.378906 C 182.574219 101.195312 171.234375 87.824219 156.179688 82.519531 L 156.824219 99.914062 C 156.929688 102.859375 154.625 105.332031 151.675781 105.4375 C 148.730469 105.539062 146.257812 103.234375 146.152344 100.289062 L 145.324219 77.976562 C 143.007812 77.734375 140.574219 77.734375 138.257812 77.976562 L 137.429688 100.289062 C 137.324219 103.234375 134.851562 105.539062 131.90625 105.4375 C 128.957031 105.332031 126.65625 102.859375 126.757812 99.914062 L 127.402344 82.515625 C 112.347656 87.824219 101.007812 101.195312 98.644531 117.378906 Z M 297.988281 336.128906 C 297.988281 331.289062 294.03125 327.332031 289.195312 327.332031 L 200.964844 327.332031 C 196.128906 327.332031 192.171875 331.289062 192.171875 336.128906 L 192.171875 341.785156 L 297.988281 341.785156 Z M 306.546875 352.496094 L 183.613281 352.496094 C 177.441406 352.496094 172.390625 357.546875 172.390625 363.71875 L 172.390625 371.882812 C 172.390625 373.566406 173.765625 374.941406 175.449219 374.941406 L 314.710938 374.941406 C 316.394531 374.941406 317.769531 373.566406 317.769531 371.882812 L 317.769531 363.71875 C 317.769531 357.546875 312.71875 352.496094 306.546875 352.496094 Z M 316.523438 257.972656 L 320.75 253.742188 C 323.558594 250.933594 323.558594 246.339844 320.75 243.53125 L 296.578125 219.359375 C 293.769531 216.550781 289.175781 216.550781 286.367188 219.359375 L 282.140625 223.589844 Z M 224.585938 281.140625 C 221.777344 283.949219 221.777344 288.542969 224.585938 291.351562 L 248.757812 315.523438 C 251.566406 318.332031 256.160156 318.332031 258.96875 315.523438 L 263.195312 311.296875 L 228.816406 276.914062 Z M 372.390625 347.773438 L 291.703125 272.769531 C 296.15625 268.984375 300.890625 265.519531 305.871094 262.402344 L 277.707031 234.238281 C 268.03125 249.726562 254.953125 262.804688 239.464844 272.480469 L 267.628906 300.644531 C 270.742188 295.664062 274.210938 290.929688 277.996094 286.480469 L 353 367.164062 C 354.542969 368.824219 356.476562 369.6875 358.742188 369.730469 C 361.007812 369.773438 362.972656 368.976562 364.574219 367.375 L 372.601562 359.347656 C 374.203125 357.746094 374.996094 355.78125 374.957031 353.515625 C 374.914062 351.25 374.050781 349.316406 372.390625 347.773438 Z M 372.390625 347.773438 "/></g></svg>