<svg xmlns="http://www.w3.org/2000/svg" xmlns:xlink="http://www.w3.org/1999/xlink" width="50" zoomAndPan="magnify" viewBox="0 0 37.92 46.079998" height="50" preserveAspectRatio="xMidYMid meet" version="1.2"><defs><clipPath id="27f43daaed"><path d="M 0.332031 0 L 37.097656 0 L 37.097656 36.765625 L 0.332031 36.765625 Z M 0.332031 0 "/></clipPath></defs><g id="f6ccaa589d"><path style=" stroke:none;fill-rule:nonzero;fill:#ffffff;fill-opacity:1;" d="M 18.71875 8.089844 C 16.28125 8.089844 14.304688 10.066406 14.304688 12.503906 C 14.304688 14.941406 16.28125 16.917969 18.71875 16.917969 C 21.15625 16.917969 23.132812 14.941406 23.132812 12.503906 C 23.132812 10.066406 21.15625 8.089844 18.71875 8.089844 "/><g clip-rule="nonzero" clip-path="url(#27f43daaed)"><path style=" stroke:none;fill-rule:nonzero;fill:#ffffff;fill-opacity:1;" d="M 18.71875 29.644531 C 18.71875 29.644531 10.433594 18.371094 10.433594 13.796875 C 10.433594 9.21875 14.144531 5.511719 18.71875 5.511719 C 23.292969 5.511719 27.003906 9.21875 27.003906 13.796875 C 27.003906 18.371094 18.71875 29.644531 18.71875 29.644531 Z M 18.71875 0 C 8.566406 0 0.332031 8.234375 0.332031 18.386719 C 0.332031 28.539062 8.566406 36.769531 18.71875 36.769531 C 28.871094 36.769531 37.101562 28.539062 37.101562 18.386719 C 37.101562 8.234375 28.871094 0 18.71875 0 "/></g></g></svg>