<svg xmlns="http://www.w3.org/2000/svg" xmlns:xlink="http://www.w3.org/1999/xlink" width="50" zoomAndPan="magnify" viewBox="0 0 37.92 46.079998" height="50" preserveAspectRatio="xMidYMid meet" version="1.2"><defs><clipPath id="58ead86776"><path d="M 0.332031 0 L 37.097656 0 L 37.097656 36.765625 L 0.332031 36.765625 Z M 0.332031 0 "/></clipPath></defs><g id="c186dc60b6"><g clip-rule="nonzero" clip-path="url(#58ead86776)"><path style=" stroke:none;fill-rule:evenodd;fill:#ffffff;fill-opacity:1;" d="M 18.710938 -0.00390625 C 8.585938 -0.00390625 0.328125 8.253906 0.328125 18.378906 C 0.328125 28.503906 8.585938 36.761719 18.710938 36.761719 C 28.835938 36.761719 37.09375 28.503906 37.09375 18.378906 C 37.09375 8.253906 28.835938 -0.00390625 18.710938 -0.00390625 Z M 9.324219 11.210938 L 28.097656 11.210938 C 28.25 11.210938 28.398438 11.230469 28.539062 11.269531 L 19.027344 19.164062 C 18.9375 19.238281 18.824219 19.277344 18.710938 19.277344 C 18.597656 19.277344 18.484375 19.238281 18.394531 19.164062 L 8.882812 11.269531 C 9.023438 11.230469 9.171875 11.210938 9.324219 11.210938 Z M 7.59375 23.816406 L 7.59375 12.941406 C 7.59375 12.691406 7.648438 12.453125 7.742188 12.242188 L 14.992188 18.257812 L 7.71875 24.464844 C 7.640625 24.265625 7.59375 24.046875 7.59375 23.816406 Z M 28.097656 25.546875 L 9.324219 25.546875 C 9.148438 25.546875 8.980469 25.519531 8.820312 25.472656 L 16.148438 19.21875 L 17.449219 20.300781 C 17.820312 20.605469 18.265625 20.761719 18.710938 20.761719 C 19.15625 20.761719 19.601562 20.605469 19.972656 20.300781 L 21.273438 19.21875 L 28.601562 25.472656 C 28.441406 25.519531 28.273438 25.546875 28.097656 25.546875 Z M 29.828125 23.816406 C 29.828125 24.046875 29.785156 24.265625 29.703125 24.464844 L 22.429688 18.257812 L 29.679688 12.238281 C 29.777344 12.453125 29.828125 12.691406 29.828125 12.941406 Z M 29.828125 23.816406 "/></g></g></svg>