<svg xmlns="http://www.w3.org/2000/svg" xmlns:xlink="http://www.w3.org/1999/xlink" width="50" zoomAndPan="magnify" viewBox="0 0 37.92 46.079998" height="50" preserveAspectRatio="xMidYMid meet" version="1.2"><defs><clipPath id="2ed1ff1393"><path d="M 0.332031 0 L 37.054688 0 L 37.054688 36.722656 L 0.332031 36.722656 Z M 0.332031 0 "/></clipPath></defs><g id="65a5d9eaad"><g clip-rule="nonzero" clip-path="url(#2ed1ff1393)"><path style=" stroke:none;fill-rule:nonzero;fill:#ffffff;fill-opacity:1;" d="M 18.667969 -0.0429688 C 8.492188 -0.0429688 0.285156 8.242188 0.285156 18.335938 C 0.285156 28.511719 8.574219 36.71875 18.667969 36.71875 C 28.84375 36.71875 37.050781 28.429688 37.050781 18.335938 C 37.050781 8.242188 28.84375 -0.0429688 18.667969 -0.0429688 Z M 30.074219 27.199219 C 29.582031 28.839844 27.367188 31.222656 25.316406 31.222656 L 25.152344 31.140625 C 22.113281 30.976562 17.929688 28.101562 14.070312 23.425781 L 12.675781 21.703125 C 8.820312 17.023438 6.769531 12.429688 7.261719 9.472656 C 7.589844 7.339844 10.707031 5.617188 12.511719 5.617188 C 13.414062 5.617188 13.742188 6.027344 13.824219 6.355469 C 14.8125 8.160156 16.125 11.28125 16.125 12.429688 L 16.125 12.59375 C 15.878906 13.167969 15.386719 13.496094 14.976562 13.742188 C 14.398438 14.070312 14.070312 14.316406 13.988281 14.890625 C 13.988281 15.054688 14.152344 15.957031 16.699219 19.074219 L 17.765625 20.390625 C 20.308594 23.425781 21.128906 23.753906 21.292969 23.753906 C 21.949219 23.835938 22.195312 23.589844 22.6875 23.097656 C 23.015625 22.6875 23.425781 22.277344 24 22.195312 L 24.164062 22.195312 C 25.316406 22.441406 28.105469 24.246094 29.746094 25.640625 C 29.992188 25.722656 30.402344 26.132812 30.074219 27.199219 Z M 30.074219 27.199219 "/></g></g></svg>